<?xml version="1.0" encoding="UTF-8"?>
<svg width="906px" height="762px" viewBox="80 100 906 600" version="1.1" xmlns="http://www.w3.org/2000/svg" xmlns:xlink="http://www.w3.org/1999/xlink">
    <title>Group 13</title>
    <defs>
        <path d="M189.580243,539.898541 C189.741775,538.450853 189.235851,507.792758 194.543407,494.821579 C199.036988,483.83968 209.11265,490.340756 212.646358,488.258493 C221.010976,483.329584 229.993819,467.79661 241.077319,458.856232 C257.365939,445.717203 276.004384,434.728167 275.30658,428.435013 C271.997805,398.594759 268.872381,378.605872 258.671926,341.002092 C254.357809,325.098183 290.972203,281.816311 305.046981,256.387758 C315.649412,237.232609 314.349225,221.064649 323.658277,217.027398 C332.967329,212.990147 350.806453,201.880256 365.190446,212.663355 C376.47887,221.125831 370.682378,246.075634 390.589497,254.685713 C395.338189,256.739582 413.482942,251.736359 417.275295,254.270414 C426.607179,260.50599 433.168987,257.534835 436.435783,262.251871 C439.259506,266.329138 422.65947,267.49252 411.667623,286.865712 C405.053129,298.523794 405.436756,315.646075 398.607264,330.177085 C396.539412,334.576824 402.010823,340.233534 399.914435,344.605889 C398.712731,347.112236 391.24661,346.688127 390.094769,349.174178 C372.767332,386.572479 364.821819,420.27887 362.124495,415.860304 M183.209459,548.191441 C183.37896,546.671142 182.848078,514.475353 188.417461,500.853589 C193.132715,489.320879 204.60222,483.418845 208.31025,481.232145 C217.087503,476.05602 225.376631,472.076875 237.006891,462.688081 C254.099046,448.890047 271.041254,435.962465 270.309027,429.35367 C266.837026,398.016741 266.413162,378.808941 255.709508,339.319097 C251.182572,322.617508 289.603192,277.164781 304.372294,250.460827 C315.497753,230.344928 314.133427,213.366045 323.901704,209.126301 C333.669981,204.886556 352.389129,193.219434 367.482699,204.543373 C379.327994,213.430295 373.245554,239.631486 394.134713,248.673414 C399.117663,250.830297 418.157516,245.576132 422.136949,248.237285 C431.929185,254.785615 443.507849,262.309629 446.9358,267.263254 C449.898819,271.545021 431.966539,265.872192 420.432452,286.21707 C413.491658,298.459878 409.714403,312.691318 402.548005,327.951149 C400.378143,332.571561 406.119464,338.511991 403.919659,343.103647 C402.658674,345.735702 393.912722,348.487398 392.70406,351.09814 C374.521841,390.372199 367.095888,422.572099 364.265502,417.931915 M353.008721,416.486963 C352.874975,416.524052 380.147042,357.537642 382.558593,312.393658 C383.242862,299.584226 350.575953,351.700089 346.351405,342.714297 C339.434795,328.002377 343.633299,256.206031 339.833884,261.069599 C338.23186,263.120325 337.703698,267.548819 336.035319,270.612761 C334.016127,274.320965 330.979888,276.530357 330.794366,276.571853 C330.270798,276.688959 323.761543,274.409205 314.409886,277.898027 C291.104639,286.592513 276.181994,310.057051 275.336878,348.68019 C274.904198,368.454353 282.337141,393.738219 284.766907,411.502785 C287.291163,429.958193 284.771089,440.534477 281.801503,441.270544 M355.496879,422.524487 C355.349941,422.565247 382.801207,353.970944 385.450615,304.358398 C386.202375,290.28103 355.735858,345.279342 351.094632,335.404095 C343.49582,319.235921 345.196734,246.378203 341.022573,251.72319 C339.262537,253.976906 338.682282,258.843753 336.849346,262.210979 C334.630995,266.286238 331.295285,268.714326 331.091464,268.759929 C330.516255,268.888627 323.364975,266.383212 313.090941,270.217373 C287.487037,279.772481 271.092532,305.559647 270.16406,348.005884 C269.688704,369.737386 277.854777,397.523966 280.524197,417.046952 C283.297428,437.329161 280.528793,448.952335 277.266308,449.761261 M355.496879,422.524487 C355.349941,422.565247 392.803635,336.915737 395.453044,287.303192 C396.204803,273.225824 361.992989,322.49042 357.351763,312.615173 C349.75295,296.446999 355.786428,230.436132 350.015526,229.431399 C347.849268,229.054246 331.317383,244.111483 329.484448,247.478709 C327.266097,251.553968 328.87621,260.339117 318.602176,264.173278 C292.998272,273.728385 271.092532,305.559647 270.16406,348.005884 C269.688704,369.737386 277.854777,397.523966 280.524197,417.046952 C283.297428,437.329161 280.528793,448.952335 277.266308,449.761261 M355.496879,422.524487 C355.349941,422.565247 401.516468,322.65512 404.165877,273.042575 C404.917637,258.965207 375.572324,288.17443 370.931097,278.299182 C363.332285,262.131008 357.283003,221.799074 351.512101,220.794341 C349.345844,220.417188 326.996048,231.045741 325.163112,234.412967 C322.944762,238.488226 319.546569,253.855818 315.162087,257.510606 C291.608734,277.144054 271.092532,305.559647 270.16406,348.005884 C269.688704,369.737386 277.854777,397.523966 280.524197,417.046952 C283.297428,437.329161 280.528793,448.952335 277.266308,449.761261 M174.995783,344.416338 C196.151459,339.748244 201.35813,328.133264 200.496915,300.719167 C200.094265,287.90207 241.030274,280.90178 237.538082,266.651607 C227.496917,225.677808 183.639932,246.27808 178.589263,250.491745 C164.255991,262.449687 129.985195,268.571606 129.985195,286.625969 C129.985195,304.680331 153.840108,349.084433 174.995783,344.416338 Z M175.938733,336.669077 C194.133624,332.670615 198.61161,322.721788 197.870923,299.240206 C197.524625,288.261705 232.731547,282.265597 229.728096,270.059592 C221.092214,234.963429 183.373113,252.60862 179.029297,256.21784 C166.701999,266.460432 137.227477,271.704169 137.227477,287.168658 C137.227477,302.633147 157.743842,340.667539 175.938733,336.669077 Z M176.348409,332.386816 C192.709707,328.778448 193.14408,314.05249 192.478036,292.861794 C192.166637,282.954366 223.107106,282.572524 220.406328,271.557348 C212.640729,239.885202 183.033588,257.245847 179.127521,260.502949 C168.042509,269.746263 141.538288,273.759948 141.538288,287.715706 C141.538288,301.671464 159.987112,335.995184 176.348409,332.386816 Z M174.489789,347.377109 C196.91605,342.43592 204.590833,332.29684 203.677894,303.27895 C203.251061,289.712022 245.208703,281.583729 241.506775,266.499885 C237.643549,250.75882 230.874835,239.590232 221.127615,236.833588 C204.018624,231.994938 181.709907,245.1163 178.299089,247.957694 C163.104978,260.615206 126.775916,267.095272 126.775916,286.20586 C126.775916,305.316447 152.063528,352.318298 174.489789,347.377109 Z M176.153856,350.952563 C184.841416,349.04432 194.940653,347.819644 199.983313,344.204632 C208.607886,338.021796 208.841239,326.835446 208.236371,307.668812 C207.988094,299.801588 225.514822,292.922125 235.881477,285.163222 C244.226884,278.917119 247.840492,267.021771 246.107024,259.980341 C241.835396,242.628782 234.228403,231.056246 223.337046,228.543136 C213.192502,226.202348 206.432241,231.0367 197.117858,236.258954 C190.269408,240.098645 179.469418,244.231113 177.997963,245.45314 C162.045152,258.701781 123.902042,265.484479 123.902042,285.487566 C123.902042,305.490653 152.607767,356.124514 176.153856,350.952563 Z M173.899442,310.47015 C184.477867,308.129586 177.638891,283.795876 174.255245,282.774252 C168.864353,281.146579 156.198777,283.769489 156.198777,292.821873 C156.198777,297.491331 166.128194,298.974856 169.415157,302.566079 C172.500421,305.936933 168.777648,311.603389 173.899442,310.47015 Z M173.627103,305.248043 C180.781732,303.643472 176.156248,286.961513 173.867747,286.261138 C170.221662,285.145289 161.655405,286.943423 161.655405,293.149279 C161.655405,296.350423 168.371084,297.367452 170.594194,299.829413 C172.680886,302.140299 170.16302,306.024934 173.627103,305.248043 Z M172.670533,298.830483 C176.247848,297.998483 173.935106,289.348579 172.790856,288.985422 C170.967813,288.406833 166.684685,289.339199 166.684685,292.55705 C166.684685,294.216903 170.042524,294.744251 171.154079,296.020823 C172.197425,297.219061 170.938492,299.233316 172.670533,298.830483 Z M173.733437,314.498306 C182.651427,312.519429 182.473597,297.641554 181.100362,287.216891 C180.370343,281.675088 180.377884,277.425964 178.861462,276.966788 C171.900755,274.859072 153.033784,279.922912 153.033784,291.645084 C153.033784,297.69169 159.388409,301.768151 163.632527,306.41852 C167.616213,310.783528 167.120188,315.965767 173.733437,314.498306 Z M175.529162,320.108823 C186.862448,317.600046 187.385555,299.987016 184.810337,287.205379 C183.366316,280.038233 192.791612,276.882593 188.563593,270.795958 C186.586189,267.949296 171.667277,272.754155 167.255611,273.527515 C158.258149,275.10476 148.722973,280.42349 148.722973,290.584904 C148.722973,298.396472 156.952255,303.662824 162.448417,309.670605 C167.607316,315.309728 166.964961,322.004626 175.529162,320.108823 Z M180.320851,325.561638 C189.151567,323.606838 188.647789,304.11353 188.93686,289.957456 C189.050674,284.383867 197.18241,278.297599 198.813697,273.995388 C201.395085,267.187462 196.31967,263.072033 194.583573,262.547603 C185.56941,259.824659 144.412162,274.722643 144.412162,289.866436 C144.412162,297.678004 152.310104,306.503551 157.806267,312.511332 C159.841185,314.735673 161.388272,319.053159 164.316686,321.50622 C168.81235,325.27213 175.134783,326.709645 180.320851,325.561638 Z M412.616313,173.18175 C416.058844,172.420061 423.544982,146.851263 414.777213,139.495534 C406.288479,132.373902 408.055087,133.671118 394.834888,130.650233 C379.750645,127.203406 354.208314,115.070993 348.298865,121.009929 C346.370012,122.948408 340.460899,132.123963 339.962581,141.912257 C339.603307,148.969345 334.57547,158.02584 334.57547,161.818183 C334.57547,164.037512 340.997955,164.585054 348.262154,165.884827 C356.2818,167.319772 365.339696,169.361192 368.19165,168.616966 C369.921693,168.165506 375.150194,167.688278 377.551225,165.037091 C381.088472,161.131308 382.327082,157.97336 386.868608,157.317933 C390.643389,156.773161 394.9569,161.132783 400.060209,166.021999 C405.40358,171.141205 411.297661,173.473512 412.616313,173.18175 Z M409.816098,166.002701 C412.788296,165.351793 417.864122,146.318347 410.294245,140.032436 C402.96528,133.946575 404.490526,135.055124 393.07653,132.473597 C380.053164,129.528077 358.000541,119.160204 352.898468,124.235381 C351.233143,125.891927 347.481178,134.325795 347.050942,142.690478 C346.740754,148.721182 348.88547,154.365774 348.886059,157.606558 C348.886059,161.59689 365.380745,166.130503 370.073411,164.918442 C371.567088,164.532642 375.139794,162.930303 377.212785,160.664705 C380.266757,157.32698 382.117478,152.97355 386.038521,152.413448 C389.297573,151.947908 395.479866,156.407294 399.885938,160.585421 C404.499274,164.960088 408.677607,166.252029 409.816098,166.002701 Z M405.396535,157.263907 C407.665632,156.765556 409.008515,146.567601 403.229361,141.75495 C397.63413,137.095464 398.798565,137.944196 390.084654,135.967715 C380.142084,133.712551 363.306211,125.774648 359.41108,129.66033 C358.139703,130.928623 355.2753,137.385803 354.94684,143.790014 C354.710029,148.407272 356.347393,152.728913 356.347843,155.210138 C356.347843,158.265236 368.94056,161.736283 372.523133,160.808299 C373.663467,160.512921 374.318132,157.457026 375.900738,155.722428 C378.232265,153.166982 381.154205,148.542085 384.14769,148.113257 C386.635784,147.756828 390.502884,148.706685 393.86666,151.905564 C397.388669,155.254919 404.527364,157.454799 405.396535,157.263907 Z M395.942781,144.301305 C396.14064,141.926991 389.727868,140.221717 387.072093,139.396067 C384.836699,138.701107 382.28286,138.037867 379.84179,137.364295 C373.296592,135.558259 367.310517,133.622527 365.860485,135.064006 C365.000963,135.918459 363.064465,140.268682 362.842407,144.583218 C362.68231,147.69388 364.584863,152.190163 365.553108,153.780317 C367.891988,157.621472 376.026505,144.511614 377.781806,143.794728 C380.062167,142.863403 382.347654,142.514904 386.215391,142.511448 C389.195138,142.508786 395.813349,145.854488 395.942781,144.301305 Z M374.18825,140.079699 C370.922056,139.167865 367.934876,138.190549 367.211278,138.918325 C366.782358,139.349723 365.816004,141.54607 365.705193,143.724401 C365.625301,145.294917 366.574715,147.565008 367.057891,148.367848 C368.225042,150.307176 372.284341,143.688249 373.160274,143.326307 C374.298223,142.856097 375.406396,140.419773 374.18825,140.079699 Z M416.85854,176.715986 C420.725593,175.861668 429.134896,147.183455 419.285915,138.933197 C409.750381,130.945505 411.734841,132.400475 396.884372,129.012221 C379.939993,125.146226 351.247871,111.538393 344.60969,118.199562 C342.442977,120.373779 334.066658,133.380192 333.506889,144.358838 C333.10331,152.274138 324.544275,163.574811 324.544275,167.828341 C324.544275,170.010848 331.692328,166.351599 339.472843,167.46209 C350.363046,169.016417 363.394378,172.523975 366.955583,171.59608 C368.898969,171.089718 374.772231,170.554454 377.469349,167.580856 C381.442796,163.200093 383.972258,161.929569 389.073829,161.194435 C393.314102,160.583414 396.302962,166.075621 402.035593,171.559413 C408.03789,177.301164 415.377278,177.043229 416.85854,176.715986 Z M420.471382,180.177764 C424.721944,179.23372 433.965227,147.543523 423.139488,138.426766 C412.658281,129.600152 414.839547,131.207932 398.516305,127.463822 C379.891491,123.191792 348.353869,108.154771 341.057356,115.515542 C338.675762,117.91811 328.540711,130.621109 327.925427,142.752809 C327.653148,148.121404 321.767453,151.960453 319.279248,158.279867 C317.713622,162.256164 319.070865,169.613818 319.070865,171.429102 C319.070865,177.216471 333.69288,174.162859 340.180787,172.111788 C343.89381,170.937962 374.551288,176.384886 377.515889,173.09898 C381.883398,168.258119 382.015347,167.751017 387.62286,166.938675 C392.283656,166.26348 397.877234,170.57528 404.17839,176.635017 C410.775956,182.979807 418.843217,180.539377 420.471382,180.177764 Z M324.61193,89.4120952 C322.49142,89.5409606 324.619956,92.7732474 323.543368,93.8552076 C322.146547,95.2589983 319.520781,94.208087 319.938126,97.7262058 C320.097088,99.0662167 322.059754,102.944785 323.580279,104.524214 C327.153224,108.235574 326.108053,103.187392 330.649579,102.531965 C334.42436,101.987193 327.139666,89.2584823 324.61193,89.4120952 Z M324.01432,84.7813858 C320.792029,84.9782166 322.58958,89.9152566 320.953615,91.5678577 C318.83103,93.7120272 316.277897,92.1068506 316.912087,97.4804744 C317.153643,99.5272257 320.136077,105.451405 322.446641,107.863847 C327.876028,113.53263 326.287804,105.821966 333.189032,104.820858 C338.925125,103.988766 327.855426,84.5467553 324.01432,84.7813858 Z M323.028408,80.4713574 C318.653655,80.7412968 321.094106,87.5120945 318.873033,89.7785189 C315.991299,92.7190942 312.52503,90.5177092 313.38604,97.8872504 C313.713989,100.694224 317.7631,108.818812 320.900044,112.127304 C328.271268,119.901635 326.115011,109.327011 335.484483,107.954062 C336.455507,107.811773 332.579039,102.908836 346.699626,103.07637 C352.678087,103.147301 369.546509,107.364584 378.817411,108.664146 C386.768494,109.7787 389.599448,110.106162 389.565586,109.657653 C389.48026,108.549125 385.437935,101.641494 372.481698,99.3507179 C366.529963,98.2983992 354.201069,98.8714826 346.969051,98.483504 C338.52349,98.030422 335.54651,96.6595231 335.181792,95.8513378 C331.816541,88.394223 325.916964,80.2931223 323.028408,80.4713574 Z M322.887728,77.4654948 C316.968944,77.825414 316.607346,81.1960767 313.602365,84.2179758 C310.946463,86.8888308 299.853596,85.316113 300.730273,87.8622387 C301.140542,89.0537796 308.751088,94.8132884 309.122448,97.9457632 C309.566144,101.688394 315.044353,112.521179 319.288453,116.932501 C321.793364,119.536108 322.942969,134.914655 325.165217,134.394298 C327.917509,133.749827 326.554194,124.836678 329.636,119.258749 C331.692698,115.536219 335.07422,113.658292 338.372688,111.410323 C342.029132,108.918388 345.646235,106.253711 348.601041,106.221073 C354.416165,106.156839 387.675968,117.583776 404.783311,120.617104 C411.945527,121.887047 414.709452,117.826355 413.95501,117.021955 C413.453686,116.487434 409.700849,104.741279 401.564235,102.207753 C394.267789,99.9358323 384.889312,99.7534532 379.391344,95.6334855 C371.258784,89.5392548 348.467012,96.2746864 347.241284,95.1970721 C345.668463,93.8143078 342.312889,94.8666642 340.650177,93.423353 C332.754798,86.5697977 326.138337,77.2678264 322.887728,77.4654948 Z M569.925883,161.510863 C560.410368,161.73116 565.281404,203.943349 550.39888,209.835496 C533.636638,216.471843 502.640822,203.620683 498.496078,178.043774 C497.534704,172.111206 435.366772,179.878666 432.813086,180.856377 C416.172019,187.227624 458.657142,211.016469 463.629194,226.983808 C465.522992,233.065583 466.002252,239.156317 484.11707,246.324716 C503.241391,253.892596 512.77475,249.783132 519.767945,253.150323 C523.052122,254.731639 525.760092,260.004345 530.392823,264.202665 C534.004155,267.475363 543.248792,276.467837 545.999869,287.536309 C546.790301,290.716469 545.56997,294.148524 545.62676,297.515385 C545.69126,301.339419 548.989416,307.084509 548.546229,310.666355 C547.478979,319.291884 541.569729,324.576701 538.526618,326.886039 M579.135947,167.214725 C573.412758,167.346802 567.201691,222.223021 545.078093,223.221208 C534.060894,223.718289 490.784311,201.376908 488.291419,186.042587 C487.713192,182.485789 462.297065,186.318496 460.761128,186.904671 C450.752213,190.724473 467.950274,199.467055 470.940758,209.040076 C472.079799,212.68633 475.359573,227.335402 486.254889,231.633128 C497.757379,236.170357 538.007447,235.963945 542.213566,237.982703 C544.188863,238.930761 543.225517,246.116836 544.880177,252.752803 C545.110538,253.676659 556.146127,272.528961 563.458492,282.393395 C571.237156,292.886869 575.338067,294.421314 576.205448,295.175953 M562.268498,149.561187 C561.276502,143.233142 558.219079,191.317563 536.382545,200.065911 C531.841409,201.885222 521.024015,197.276107 514.079782,189.072927 C511.241857,185.720505 512.318891,173.908188 509.621377,173.988449 C503.75243,174.163072 475.634945,169.892472 458.082145,165.026894 C446.992582,161.952904 444.049701,157.792388 441.148798,157.055101 C433.12249,155.015155 433.240374,138.748778 432.045848,127.428455 C430.814796,115.761977 428.377979,109.03289 427.077349,106.922657 C421.947767,98.6000622 409.766353,92.1245468 398.796636,88.5288281 C395.616939,87.4865679 383.833128,91.2067881 382.281397,89.0407639 C381.094322,87.383755 379.773519,85.8548774 378.280099,84.5142949 C373.401483,80.1349598 355.564147,89.107631 351.261194,85.1147663 C343.867397,78.2537955 337.656212,72.6780723 333.771222,70.8437625 C320.93188,64.7816278 282.347542,85.0096777 285.024086,86.4812909 C296.358923,92.7133927 312.123243,129.443788 307.751478,138.543734 C305.145926,143.967261 306.843895,150.644158 306.635985,154.705087 C306.095657,165.258819 309.061796,187.755916 309.062823,193.427288 C309.062823,200.410368 338.39831,185.821005 346.572631,183.699898 C349.17452,183.024749 379.223924,190.106366 382.834941,186.141569 C388.154764,180.300551 392.50285,204.820347 399.333054,203.840169 C401.009005,203.599659 412.760797,207.486977 425.502426,218.630516 C430.698045,223.174487 434.969211,231.944537 441.683402,237.201944 C444.607006,239.49121 450.233209,239.432291 453.28765,241.867078 C458.198406,245.781589 460.648548,247.94708 466.179224,251.934467 C468.890114,253.888906 474.367042,258.960023 480.610424,260.421724 C489.727375,262.556185 500.198654,260.993136 503.763344,263.845621 C507.099848,266.51551 509.909884,270.430117 512.914618,273.011214 C515.681295,275.387816 516.332355,289.525451 518.763702,291.648456 C521.90547,294.391787 525.178244,290.477078 527.617869,292.793931 C533.809024,298.673522 524.480299,309.069681 525.788688,310.316124 M564.579398,156.205149 C563.626118,150.139435 561.838834,194.400448 534.811236,203.261694 C530.311824,204.736867 517.178231,196.9952 510.505011,189.132086 C507.777842,185.918639 508.812842,176.032943 506.220604,176.109877 C500.580705,176.277261 471.405157,170.746763 454.537392,166.08289 C443.880622,163.136334 441.052593,159.148293 438.264903,158.441571 C430.551839,156.486192 430.665122,140.894143 429.517215,130.043109 C428.334207,118.860269 425.992492,112.41014 424.742622,110.387386 C419.813232,102.409808 410.262628,96.202738 399.721028,92.7560812 C396.665424,91.7570284 385.341502,95.3230254 383.85033,93.2467945 C382.709583,91.6584776 381.440327,90.1929802 380.00519,88.9079721 C375.316972,84.710184 358.175775,93.3108896 354.040754,89.4835507 C346.935515,82.9070041 340.966734,77.5624247 337.233364,75.8041569 C324.895104,69.9933304 289.253537,85.0720078 291.825623,86.4826147 C302.718094,92.4563623 322.403216,137.227524 318.202069,145.950228 C315.698204,151.14892 311.356932,152.296396 311.157136,156.188978 C310.637895,166.305201 312.913782,172.280842 312.914769,177.717105 C312.914769,184.410699 338.11463,177.500857 345.969931,175.467681 C348.470276,174.820521 374.910739,179.092298 387.352031,173.816046 C394.736981,170.684147 402.033727,195.69221 408.597368,194.752666 C410.207912,194.522126 420.228051,199.998073 432.472412,210.679652 C437.465262,215.035251 439.734303,222.897469 446.18646,227.936928 C448.995964,230.131292 454.134899,231.023865 457.070134,233.357717 C461.789238,237.10995 460.734757,243.018138 466.049587,246.840226 C468.654679,248.713643 476.639191,252.263168 482.638912,253.664274 C491.400056,255.71025 498.421146,254.982651 501.846717,257.716885 C505.053007,260.276093 511.527131,267.116582 514.4146,269.590678 C517.073301,271.868757 519.135889,286.138779 521.472348,288.173774 C524.491502,290.803379 527.636549,287.050956 529.980962,289.271764 C535.930494,294.907614 531.276654,304.872796 528.223169,306.067568 M560.589661,129.95387 C559.399987,122.357556 551.49745,142.475348 544.472464,156.553956 C537.447479,170.632564 526.52049,169.188448 525.207001,169.227567 C518.168529,169.437188 519.073708,161.730243 497.37374,161.987805 C475.207002,162.250906 435.902878,142.91385 439.147795,127.181462 C442.392712,111.449074 431.931313,74.0285518 425.171206,67.0762224 C422.256866,64.0790139 404.274783,54.0280948 402.413833,51.4279552 C400.990205,49.438848 368.579763,66.4444388 363.419346,61.6513227 C354.552161,53.4152738 351.460169,55.4340217 346.801004,53.2320789 C331.403122,45.9549691 275.861385,73.6116687 275.399102,76.887443 C273.255242,92.0789895 288.704792,105.413639 295.977436,121.894069 C302.811066,137.379659 301.618646,161.672375 301.497856,164.033929 C300.849855,176.702844 298.482716,197.357011 305.758149,199.895609 C321.444002,205.368833 334.018296,192.741101 343.821542,190.194881 C346.941919,189.384419 375.427414,192.88625 382.214701,194.321865 C383.179249,194.525882 383.378571,198.216734 385.965611,201.953488 C388.530772,205.65864 393.457156,209.390686 400.600898,214.071329 C415.587189,223.890478 453.343565,259.611731 474.67185,273.254627 C491.478386,284.005132 444.46363,277.826011 436.056802,285.296437 C417.741515,301.571658 412.24717,330.036487 413.37281,331.106502 C414.815611,332.478005 419.714661,343.236151 415.864219,349.124471 C413.951049,352.050203 410.126276,349.304974 406.102621,351.392155 C401.44777,353.806754 396.532077,361.106415 394.087659,365.717756 C381.013341,390.382164 369.895281,418.852697 370.832719,419.746607 M558.555209,123.149986 C557.330395,115.329583 551.38605,133.443226 544.153564,147.937148 C536.921079,162.43107 529.64073,167.383801 528.288443,167.424073 C521.042073,167.639878 521.973989,159.705582 499.633059,159.970741 C476.811572,160.241604 441.304918,139.632738 444.645682,123.436251 C447.986445,107.239763 432.257631,69.4167223 425.297848,62.2593018 C422.297426,59.1736767 403.784198,48.8262592 401.86828,46.1494164 C400.402602,44.1016312 367.034838,61.6088808 361.721996,56.6743695 C352.592897,48.1953601 349.409576,50.2736604 344.612791,48.0067611 C328.760094,40.5149792 271.577797,68.9875413 271.101859,72.3599498 C268.894675,87.9996413 282.491965,108.569563 289.979423,125.53616 C297.014902,141.478569 295.69629,160.238937 295.571931,162.670156 C294.90479,175.712799 295.79247,203.250183 303.282801,205.863668 C319.431974,211.498351 328.936605,198.886711 339.029413,196.265379 C342.241958,195.431008 358.68999,195.480323 365.677756,196.958288 C367.655434,197.376582 371.328093,202.122315 386.100324,211.800856 C401.529271,221.909667 439.144832,255.444869 461.1031,269.490226 C478.406058,280.557866 443.004714,272.759916 434.34957,280.450716 C415.493297,297.206051 407.845425,329.416367 409.004313,330.517948 C410.48973,331.92991 417.524724,340.099631 413.560551,346.161655 C411.590871,349.173694 407.653123,346.347482 403.51062,348.496234 C398.718277,350.982063 393.657387,358.497061 391.140766,363.244435 C377.680267,388.636434 365.904939,423.618809 366.870067,424.539089 M179.627041,354.533718 C190.719783,352.075968 202.74449,358.132741 208.033187,353.436239 C214.916103,347.32403 211.481434,329.392239 210.893744,310.607905 C210.407853,295.077342 259.216245,292.604254 252.040002,252.143141 C249.971323,240.479514 242.810249,234.440429 238.042496,230.078301 C233.366663,225.800273 231.111989,223.093549 226.204605,222.469832 C214.548058,220.988313 204.737243,226.090126 201.443236,228.849572 C184.146794,243.339092 118.613952,263.326344 118.613952,285.202938 C118.613952,307.079532 154.097775,360.190079 179.627041,354.533718 Z M178.979367,359.155329 C190.821671,356.529339 203.658915,383.117833 209.304982,378.099842 C216.652993,371.569235 215.860108,333.011313 215.232708,312.941139 C214.713984,296.347464 265.472141,292.07755 258.779853,248.642011 C256.796523,235.769432 249.686446,228.387672 241.115466,224.467189 C236.166979,222.203684 233.87864,215.842189 228.661711,215.495636 C217.974843,214.785724 205.057883,222.530139 202.269732,224.867747 C183.804531,240.349115 113.843484,261.704552 113.843484,285.078661 C113.843484,308.452769 151.725031,365.198884 178.979367,359.155329 Z M179.99319,365.099856 C185.992573,364.563218 194.909831,405.879256 206.3941,407.923804 C217.87837,409.968352 222.103978,388.114544 222.588407,380.746892 C223.114751,372.741774 223.110407,337.679857 222.450888,316.585693 C221.905609,299.145403 278.225666,284.062802 265.914021,240.0681 C263.287423,230.682159 249.845103,224.92699 241.28683,218.410205 C235.896858,214.305955 236.206639,207.42282 230.550498,206.924532 C217.675564,205.79029 217.970282,211.948065 214.76945,214.631229 C195.358974,230.902463 110.251142,260.284234 110.251142,284.850899 C110.251142,309.417564 150.920138,367.700405 179.99319,365.099856 Z M22.9906542,386.874238 C23.1824084,386.893005 42.9407913,373.830869 51.2029318,354.605085 C57.7231148,339.43279 51.9675419,317.256659 59.1264726,316.506168 C68.0372708,315.572024 83.8671459,290.455789 93.8131993,295.463845 C99.9279614,298.542763 123.908935,330.874153 143.330611,349.50132 C161.882673,367.294447 176.039604,371.47835 176.30254,371.847758 C180.450512,377.675385 181.834862,393.821207 187.289066,406.726185 C189.284087,411.446525 202.029463,415.921312 205.162468,416.987101 C211.902307,419.279865 221.191863,410.245314 223.25435,408.41432 C224.952892,406.906422 223.416182,402.831935 224.382313,398.054327 C224.871885,395.633354 228.630298,392.965503 229.051678,389.985828 C231.841163,370.260711 229.815087,340.099083 229.328588,324.553757 C228.9606,312.795283 248.168308,299.492325 262.170126,279.165695 C270.347342,267.294718 278.495505,253.11175 275.321467,235.221244 C272.730786,220.618831 254.867567,226.014548 249.916471,217.898922 C247.482862,213.909855 244.429091,213.640934 241.887349,211.782766 C237.216113,208.367809 235.340561,200.686779 230.88716,200.208433 C220.439213,199.086204 212.215963,212.350651 208.941401,215.092984 C195.735342,226.152609 157.511919,240.634543 131.465108,256.466483 C130.314734,257.165711 117.417518,251.106598 117.478513,244.695687 C117.562786,235.838138 116.088168,222.544713 119.521043,207.142617 C120.329701,203.514453 126.723481,198.693818 127.726726,194.925548 C133.81795,172.046425 137.112763,148.605039 137.363959,133.611561 C137.529918,123.705747 126.461532,121.693281 125.481117,122.638959 C124.912752,123.187185 116.003793,131.52237 100.249062,132.930711 C92.274836,133.64354 82.7958509,131.145002 73.6013935,133.497983 C64.3603804,135.862878 55.3996114,143.076553 45.6882722,142.683427 C31.0679158,142.091577 16.2464926,133.688574 3.19933971,124.388261 M17.5115524,392.609213 C17.7128706,392.628917 46.4282379,379.51578 55.1024621,359.329656 C61.9478467,343.399496 53.9979606,321.125284 61.5139512,320.337306 C70.8691856,319.356501 82.9384295,297.479423 93.3805536,302.737635 C99.8002964,305.970345 123.463248,333.81189 143.853602,353.369495 C163.33097,372.051399 173.777847,376.590581 174.053898,376.978441 C178.408755,383.097161 178.569788,399.855635 187.324516,413.154451 C190.222337,417.556368 205.480126,423.107205 208.769394,424.22623 C215.84539,426.63352 225.598273,417.147687 227.763629,415.225235 C229.546888,413.642016 227.933533,409.364006 228.947851,404.347754 C229.461841,401.805851 233.407709,399.00474 233.850106,395.876228 C236.77872,375.16583 234.65159,343.497611 234.140827,327.175787 C233.904692,319.629934 245.997772,308.41861 256.70724,294.765722 C273.752543,273.035641 292.341935,246.798135 290.327916,231.999362 C288.225275,216.549404 264.864751,226.00927 259.666713,217.488264 C257.111726,213.299941 249.994485,210.722802 247.32597,208.771818 C242.421751,205.186282 240.452654,197.121581 235.777134,196.619341 C224.808084,195.441056 211.515193,207.206759 208.077309,210.086074 C194.212582,221.698133 159.031233,234.016093 131.685307,250.638848 C130.477557,251.373002 121.931769,248.974993 121.995806,242.243852 C122.084281,232.943864 122.169285,221.017044 125.773378,204.845604 C126.622369,201.036211 132.689902,195.23259 133.743186,191.276092 C140.138217,167.254144 144.006708,140.892743 144.270433,125.150331 C144.444669,114.749716 126.143159,114.18231 125.113844,115.175226 C124.517132,115.750836 115.163828,124.502368 98.6233115,125.981057 C90.2513621,126.729492 80.2996018,124.106151 70.6465603,126.576665 C60.9446411,129.059688 51.5369435,136.63369 41.3412401,136.220926 C25.9916768,135.599513 13.6978946,122.302008 0,112.53714 M55.7464418,448.522628 C55.894165,448.537077 97.5557051,455.859554 107.790443,436.82168 C113.492631,426.214907 88.061608,389.914645 91.6077888,381.66795 C99.4293076,363.478893 87.9201382,360.667369 96.5078898,359.767656 C107.197157,358.647772 101.342536,359.733003 106.718787,361.574712 C109.625163,362.570332 121.054598,357.126375 127.353628,364.321233 C133.652658,371.516091 146.456543,369.166862 154.182258,388.436712 C157.786136,397.425677 158.435189,406.276861 162.247275,411.823207 C181.599979,439.980179 214.263348,446.030146 214.578763,446.473005 C219.554611,453.45936 224.952654,453.870643 231.113074,453.977538 C236.281722,454.066542 247.888615,437.981256 251.646924,439.25896 C259.731939,442.007603 261.82039,427.18613 262.325871,423.613995 C265.672098,399.966862 238.804155,351.724224 245.113913,334.62929 C252.923529,313.470813 268.569713,290.104852 287.625947,257.407138 C296.209457,242.679089 304.619316,233.065448 298.680051,223.336163 C295.76073,218.553936 285.418093,216.760813 282.369055,214.533179 C276.765507,210.439214 269.50725,215.378722 264.165013,214.805264 C258.91065,214.24124 252.630425,200.324213 247.293162,194.673524 C239.899473,186.845648 233.93984,186.904101 231.658528,188.813424 C215.816727,202.072073 164.073583,231.69765 145.136708,237.7939 C143.625574,238.280371 128.500993,230.896004 128.574161,223.210388 C128.675253,212.591661 132.315803,218.247373 136.433831,199.782823 C137.403886,195.433258 147.12638,156.073245 148.329859,151.555715 C155.636805,124.127455 159.943807,132.874616 160.245139,114.899931 C160.444221,103.024508 148.014617,94.3506284 146.838524,95.4843393 C146.259195,96.0427919 138.87268,94.5122476 121.732244,103.7085 C111.062021,109.43333 109.932085,117.270259 97.0058571,121.676393 C86.8676127,125.132193 76.8216843,118.870421 66.9719086,121.81976 C59.3231586,124.110042 51.9883393,126.145496 45.3199304,127.767509 C31.554493,131.115792 12.5745248,91.4041119 9.91034762,101.735883 M51.9931313,455.584432 C52.1468046,455.599456 102.156076,459.360441 112.803058,439.56378 C118.734924,428.534256 96.6643293,396.067037 100.353346,387.491655 C108.489907,368.577642 88.5724777,363.087182 97.5061343,362.151609 C108.625953,360.987091 99.4257853,363.255944 105.018585,365.171057 C108.042027,366.206359 119.931827,360.545424 126.484574,368.027045 C133.037322,375.508666 141.241064,376.558116 149.277962,396.595998 C153.027,405.943234 158.818066,411.654887 162.783699,417.422293 C182.915908,446.701508 216.89492,452.992608 217.22304,453.453118 C222.399309,460.717926 225.608348,459.156166 232.016903,459.266936 C237.393738,459.359873 248.432013,442.719967 252.341702,444.048595 C260.752372,446.90679 266.367506,433.39753 266.893347,429.683023 C270.374357,405.093393 242.424203,354.927961 248.988111,337.151679 C257.11229,315.149894 273.388685,290.852643 293.212482,256.851705 C302.141726,241.536644 310.890325,231.539835 304.711833,221.422773 C301.674925,216.449942 290.915698,214.585351 287.743849,212.268931 C281.914596,208.011794 273.740507,210.63608 268.18309,210.039766 C262.717088,209.453261 256.80738,197.493642 251.255138,191.617735 C243.56364,183.477865 231.816527,181.573449 229.443326,183.558871 C212.963435,197.345966 165.908666,224.080067 146.209035,230.419293 C144.637035,230.925153 134.074717,228.168847 134.150833,220.176907 C134.255997,209.134953 137.267722,215.854568 141.551619,196.654081 C142.560747,192.131157 155.264016,151.604739 156.51597,146.907156 C164.117231,118.385695 162.428761,127.873046 162.742229,109.181949 C162.94933,96.8332103 147.977765,87.2962975 146.7543,88.4751944 C146.151636,89.0559051 138.467601,87.4643583 120.636768,97.0271437 C109.53676,102.980146 108.361311,111.12943 94.9144295,115.711178 C84.367828,119.304715 73.9172608,112.793368 63.6707472,115.860259 C55.7139142,118.241824 54.9880919,117.786787 48.051087,119.473448 C33.7311932,122.955183 8.9703827,82.002018 6.19889543,92.7455791 M536.023474,125.140793 C554.947179,105.13631 488.338122,150.638333 480.293088,150.031882 C472.248054,149.425431 462.340928,145.345143 457.814512,134.076396 C450.448991,115.739549 456.527187,82.9174843 451.927781,75.3835372 C449.922475,72.098794 434.436821,62.0861939 421.718196,49.7813215 C411.286358,39.6888437 403.24702,26.7882138 401.529182,25.533237 C399.276037,23.8871888 388.352927,30.6463515 373.376548,34.2528442 C368.157286,35.5097053 362.257457,31.9670721 356.319248,33.6156126 C342.327646,37.4999025 326.933141,42.2947759 312.929133,47.1677655 C296.900013,52.7454356 280.629411,49.0248426 273.798899,59.7836149 C269.231762,66.9773337 259.056686,85.3445853 260.410447,96.0776507 C263.304847,119.025412 285.211666,138.781221 290.357513,162.823851 C294.713726,183.177121 285.862714,203.919727 281.966885,205.672546 C271.316602,210.464343 242.844047,170.770827 228.252661,180.106854 C212.255501,190.342341 219.979717,184.703904 196.302725,192.325632 C195.370924,192.625583 181.523995,192.539042 172.566386,195.27149 C163.360896,198.079553 159.051816,203.640602 159.098182,198.770632 C159.224578,185.494756 168.675733,164.274837 170.180457,158.626876 C179.316414,124.335177 158.156826,72.454494 136.725943,83.9519469 C123.384841,91.1093135 137.895944,84.7437038 121.734133,90.2523948 C109.05817,94.5729481 95.2946873,102.066928 82.9794002,105.754288 C73.4160807,108.617673 54.517853,106.122293 46.1802652,108.150186 C28.9691814,112.336318 8.157981,71.9370332 4.8269298,84.8541471 M537.648424,117.442933 C490.002637,105.615179 482.353597,142.625311 474.633321,142.042058 C466.913044,141.458805 465.99126,141.328121 461.647564,130.490432 C454.57937,112.855015 462.356702,83.4567364 457.942961,76.2109815 C456.018604,73.051888 437.870411,54.2168036 425.665204,42.3826233 C418.834975,35.7600269 410.12079,24.8422706 403.302873,21.3547913 C400.128103,19.7308429 395.581526,23.6186349 395.057784,23.2351689 C392.895593,21.6520862 382.41342,28.152694 368.041599,31.6212294 C363.033025,32.8300125 357.371356,29.4228938 351.672858,31.0083735 C338.24606,34.7440796 323.472992,39.3555371 310.034289,44.0421227 C294.652222,49.406433 279.038423,45.8281619 272.48364,56.1753843 C268.100867,63.0939255 253.307253,86.5063316 254.606366,96.8288304 C257.383927,118.898783 278.406424,137.898882 283.344547,161.021822 C287.524911,180.596529 285.497408,200.545678 281.758843,202.231448 C271.538484,206.839946 243.402195,167.611387 229.399825,176.590288 C214.048428,186.434242 202.495146,178.699386 197.098213,177.162818 C196.15231,176.893508 176.822527,177.482761 173.307364,180.235954 C169.792201,182.989148 177.004922,162.448145 178.448904,157.016232 C182.653178,141.200764 175.968079,120.616242 167.479631,104.162492 C158.267139,86.3052787 146.60981,73.4042525 135.906309,79.1592281 C123.103753,86.0428075 134.91058,79.164173 119.40118,84.4621428 C107.236913,88.6174241 101.386051,91.7644266 89.5678997,95.310736 C80.3906265,98.064589 63.904744,100.73033 55.9037228,102.680651 C39.3874057,106.706653 13.2642651,66.0079347 10.0676797,78.4309368 M353.149704,12.0880784 C352.58817,12.2437962 298.053404,39.4955687 267.744716,47.008134 C265.364546,47.5981028 261.083193,47.5334655 258.196958,48.2380361 C253.748282,49.3240205 248.929728,50.4181761 244.454198,51.1260412 C242.202873,51.4821183 240.34424,50.1852097 238.275309,50.7122219 C232.979365,52.0612403 229.502932,55.5404906 225.311001,56.5858181 C224.311269,56.8351176 221.027969,54.8483588 220.113918,55.0258818 C215.104226,55.9988424 213.899264,58.3065738 214.030369,59.9744702 C214.081797,60.628722 217.91355,64.3815715 217.905868,66.7467033 C217.898338,69.0650617 215.33109,69.8449567 216.483871,70.3240083 C224.572391,73.6852852 219.764199,77.9759755 223.525898,80.1248302 C232.245516,85.1058751 238.531157,90.0845329 240.144595,93.9370617 C247.230235,110.85598 283.846138,166.158662 270.438598,181.88785 C266.090438,186.988937 258.928443,170.775353 250.612802,166.29153 C241.960314,161.62608 229.448449,168.395824 219.027642,167.549216 C209.489515,166.77432 208.9029,160.572629 201.699976,159.272832 C197.698202,158.550695 194.56597,139.889804 186.406921,123.420668 C179.267366,109.009394 166.745039,96.6628827 166.75355,94.3589951 C166.800206,81.7293941 147.881442,68.4648678 138.650355,69.8452763 C131.045277,70.9825327 126.716596,75.2309156 120.642118,76.0860356 C116.04273,76.7335032 114.478693,74.2089126 110.961993,74.6954812 C102.942012,75.8051214 96.9748981,82.9358232 96.3653819,82.5437197 C92.7737711,80.2332265 82.8672604,82.973986 79.9639823,81.9105246 C74.7549038,80.002456 75.6640435,87.4418568 71.9832561,88.785215 C61.1510958,92.7385732 53.628816,95.8311443 40.3419999,85.7240864 C33.8049391,80.7514541 37.7789255,70.1620152 31.3210245,69.0122566 C13.4986994,65.8391868 9.41619645,63.7894093 8.51366324,67.2853607 M362.826577,10.0585586 C362.231892,10.2236426 305.914547,41.2699793 273.816554,49.2344157 C271.295869,49.8598704 266.761761,49.7913452 263.705134,50.5382949 C258.993826,51.6895998 253.890804,52.8495675 249.151057,53.6000097 C246.766823,53.9775045 244.798464,52.6025885 242.60739,53.1612998 C236.998795,54.5914598 233.317128,58.2799825 228.877721,59.3881851 C227.81897,59.6524797 222.9049,56.8277514 221.936887,57.0159522 C216.631442,58.0474351 218.947687,56.9016312 219.086532,58.6698495 C219.140995,59.3634537 223.198959,63.3420322 223.190824,65.8494236 C223.18285,68.3072282 220.464041,69.134033 221.684879,69.641899 C230.250912,73.2053523 225.158864,77.754122 229.142639,80.0322276 C238.377028,85.3128759 245.298525,91.5836119 247.007214,95.6678654 C254.511163,113.604435 289.431604,173.396289 275.232535,190.071567 C270.627677,195.479477 260.107048,181.040702 251.300484,176.287184 C242.137188,171.341113 235.300609,172.62272 224.2646,171.72519 C220.930007,171.453996 212.407757,174.180884 208.023284,173.469441 C199.126214,172.025765 190.265745,169.894378 185.155779,168.971295 C180.917756,168.205722 192.758095,148.658811 184.117368,131.199078 C176.556322,115.920984 165.417321,99.720428 165.426334,97.2779644 C165.475745,83.8887093 151.18784,71.9817443 141.411786,73.4451826 C133.357736,74.6508435 128.773506,79.1547612 122.340415,80.0613155 C117.469497,80.7477275 115.813126,78.0712859 112.088814,78.5871211 C103.595365,79.7635047 97.2759765,87.3231089 96.630477,86.907421 C92.8268317,84.4579546 82.3354801,87.3635672 79.2608039,86.2361399 C73.7442023,84.2133035 74.7070139,92.1001747 70.8089274,93.5243341 C59.3372795,97.7154817 51.3709142,100.994067 37.2996973,90.2790826 C30.3767146,85.0073529 34.5853092,73.780973 27.7461594,72.5620579 C8.87167522,69.198132 4.54815752,67.0250631 3.59234234,70.7312914 M334.087838,13.6509009 C333.587975,13.7897811 285.042545,38.0948503 258.062539,44.7950905 C255.943774,45.3212666 252.132625,45.2636185 249.563373,45.8920047 C245.603278,46.8605628 241.313926,47.8364086 237.329926,48.467733 C235.325855,48.785308 233.671349,47.6286326 231.82964,48.0986596 C227.115329,49.3018101 225.99861,45.7597335 222.267061,46.6920309 C221.377126,46.914374 216.476507,51.7875606 215.662842,51.9458883 C211.203345,52.8136438 210.130719,54.8718428 210.247426,56.3593915 C210.293205,56.9428997 209.974337,61.1902051 209.967499,63.2995979 C209.960796,65.3672749 211.896588,75.6556409 215.245155,77.5721425 C223.007131,82.0145926 231.212128,88.3946951 232.648369,91.8306544 C238.955822,106.920149 274.318466,152.236 262.383422,166.264409 C258.512803,170.81392 249.068779,158.811406 241.666412,154.812414 C233.964192,150.651434 229.992089,159.173854 220.715759,158.418789 C212.225166,157.727681 205.683086,146.079986 199.27123,144.920734 C195.708955,144.276681 192.920724,127.633571 185.657751,112.945224 C179.302305,100.092225 168.155255,89.0807275 168.162831,87.0259566 C168.204363,75.7619801 151.363372,63.931732 143.146098,65.1628785 C136.376256,66.1771646 132.522977,69.9661747 127.115634,70.7288315 C123.021379,71.3062893 121.629114,69.0546797 118.498639,69.4886363 C111.359461,70.4782923 103.25059,70.2909272 102.708014,69.9412215 C99.5108559,67.8805593 93.4894393,76.8719957 90.9050166,75.9235251 C86.2680305,74.2217738 81.3910432,75.4577121 78.114502,76.6558145 C68.4719947,80.1817005 67.4621368,88.3389241 55.6345588,79.3247309 C49.8154375,74.8897836 53.3529767,65.4453688 47.6043213,64.4199323 C31.7393513,61.5899629 28.1052134,59.7618256 27.3018018,62.8797637 M336.243243,10.777027 C335.74338,10.9159072 287.197951,35.2209764 260.217945,41.9212166 C258.099179,42.4473927 254.28803,42.3897446 251.718779,43.0181308 C247.758683,43.9866889 243.469332,44.9625348 239.485332,45.5938591 C237.481261,45.9114341 227.205133,44.0362903 225.363424,44.5063172 C220.649112,45.7094677 219.532393,42.1673911 215.800845,43.0996886 C214.91091,43.3220317 210.010291,48.1952183 209.196626,48.353546 C204.737129,49.2213014 203.664503,51.2795004 203.78121,52.7670492 C203.826989,53.3505574 203.50812,57.5978628 203.501282,59.7072556 C203.494579,61.7749325 206.199357,75.0452234 209.547924,76.9617249 C217.309901,81.404175 226.119702,88.7286707 227.555943,92.16463 C233.863396,107.254125 267.940655,144.278821 256.005611,158.30723 C252.134992,162.856742 252.369928,152.305626 244.967561,148.306635 C237.265341,144.145654 226.127604,150.183393 216.851274,149.428328 C208.360681,148.73722 207.838491,143.206112 201.426636,142.04686 C197.86436,141.402807 195.07613,124.759697 187.813156,110.07135 C181.45771,97.2183509 170.31066,86.2068537 170.318236,84.1520828 C170.359768,72.8881062 153.518777,61.0578581 145.301504,62.2890046 C138.531662,63.3032907 134.678382,67.0923009 129.27104,67.8549577 C125.176784,68.4324154 123.784519,66.1808058 120.654045,66.6147624 C113.514866,67.6044184 105.405995,67.4170534 104.86342,67.0673476 C101.666261,65.0066854 95.6448447,73.9981218 93.060422,73.0496513 C88.4234359,71.3479 83.5464486,72.5838382 80.2699074,73.7819406 C70.6274001,77.3078267 69.6175422,85.4650502 57.7899642,76.450857 C51.9708429,72.0159098 55.5083821,62.5714949 49.7597267,61.5460584 C33.8947567,58.716089 30.2606188,56.8879517 29.4572072,60.0058898 M336.243243,8.62162162 C335.74338,8.76050183 287.197951,33.065571 260.217945,39.7658112 C258.099179,40.2919873 254.28803,40.2343392 251.718779,40.8627254 C247.758683,41.8312835 243.469332,42.8071294 239.485332,43.4384537 C237.481261,43.7560287 227.205133,41.8808849 225.363424,42.3509118 C220.649112,43.5540623 219.532393,40.0119857 215.800845,40.9442832 C214.91091,41.1666262 204.981012,47.4767498 204.167347,47.6350775 C199.70785,48.502833 198.635224,50.561032 198.75193,52.0485807 C198.79771,52.6320889 198.478841,56.8793943 198.472003,58.9887871 C198.4653,61.056464 201.170078,74.3267549 204.518645,76.2432564 C212.280622,80.6857066 216.562107,89.2170047 217.998348,92.652964 C224.305801,107.742459 257.062265,135.689506 253.039824,148.548267 C251.525722,153.388479 251.02843,146.07122 243.626062,142.072228 C235.923843,137.911248 226.046126,143.937972 216.769795,143.182908 C208.279202,142.491799 210.983824,137.976276 204.571969,136.817024 C201.009693,136.172971 198.471008,121.448972 191.208034,106.760626 C184.852588,93.9076262 173.898278,84.9193036 173.905854,82.8645327 C173.947386,71.6005562 153.518777,58.9024527 145.301504,60.1335992 C138.531662,61.1478853 134.678382,64.9368955 129.27104,65.6995523 C125.176784,66.27701 123.784519,64.0254004 120.654045,64.459357 C113.514866,65.449013 105.405995,65.261648 104.86342,64.9119422 C101.666261,62.85128 95.6448447,71.8427164 93.060422,70.8942459 C88.4234359,69.1924946 83.5464486,70.4284328 80.2699074,71.6265352 C70.6274001,75.1524213 69.6175422,83.3096448 57.7899642,74.2954516 C51.9708429,69.8605044 55.5083821,60.4160895 49.7597267,59.390653 C33.8947567,56.5606836 30.2606188,54.7325463 29.4572072,57.8504844 M316.911249,10.0585586 C316.812525,10.0858942 293.586206,23.9948397 272.149409,26.9061894 C265.980027,27.7440584 254.556199,24.1827747 247.341482,25.0358826 C225.00441,27.677141 195.743214,35.4652017 196.462477,45.9056205 C196.705822,49.4378656 185.765655,61.1622181 186.771291,79.2104011 C186.849795,80.6193011 180.054073,78.7612667 173.016489,73.5073529 C166.906813,68.946169 160.9451,61.0284067 155.034904,60.3774662 C139.152188,58.6281664 119.137022,61.0194454 97.3406573,59.8124892 C93.4231167,59.5955586 89.5355595,57.2870005 85.6193281,57.0242336 C84.3113524,56.9364726 83.0190452,58.8553555 81.7166582,58.7691133 C80.4022532,58.6820753 78.618169,56.7799649 77.31228,56.6890214 C76.0037659,56.597895 74.7010079,56.5078884 73.4053931,56.4191195 C72.416943,56.351396 68.4363364,58.6444281 67.4568176,58.5781977 C66.0696421,58.4844037 67.6883547,56.0321243 66.3220765,55.9415789 C63.4861662,55.7536386 60.5327258,57.2805634 57.8100305,57.1085917 C54.3777831,56.891803 51.2142385,54.9812135 48.0181085,54.7945819 C45.3206008,54.6370664 42.6462564,56.5817988 40.1581083,56.4492669 C37.179975,56.2906358 34.4374022,54.0604915 31.8185097,53.9426978 C20.9746267,53.4549568 13.4872915,53.3408537 11.6502389,53.7955112 M301.038288,5.74774775 C300.949527,5.7722953 280.067141,18.2625953 260.793683,20.8770014 C255.246897,21.6294118 244.975929,18.4313619 238.4893,19.1974569 C218.40642,21.5693196 192.09818,28.5630356 192.744857,37.9385819 C192.963643,41.110555 183.127526,51.63908 184.031677,67.8464353 C184.102258,69.1116343 177.992341,67.4431104 171.66497,62.7250705 C166.171864,58.6291054 160.81179,51.5189167 155.498034,50.934369 C141.218156,49.3634894 123.222862,51.5108694 103.626123,50.427017 C100.10393,50.2322122 96.6086934,48.159116 93.0876766,47.9231501 C91.911698,47.8443402 90.7498067,49.5675063 89.5788529,49.4900604 C88.3970938,49.4118999 86.7930542,47.7037956 85.6189517,47.6221278 C84.4424891,47.540296 83.2712017,47.4594696 82.1063366,47.3797547 C81.217638,47.3189386 77.6387426,49.3780925 76.7580741,49.3186173 C75.5108883,49.2343898 76.966245,47.0322311 75.7378477,46.9509209 C73.1881292,46.7821496 70.5327415,48.1533355 68.0848127,47.998904 C64.9989378,47.8042267 62.1546489,46.0885081 59.2810631,45.9209121 C56.85578,45.7794624 54.4513227,47.5258415 52.2142713,47.4068272 C49.5366825,47.2643757 47.0708822,45.2616954 44.7162807,45.1559161 C34.966731,44.7179223 28.2349959,44.6154572 26.5833333,45.0237417 M280.921171,0 C280.845654,0.0208795251 263.079226,10.6448129 246.681651,12.8685605 C241.962527,13.5085418 233.224138,10.7883614 227.705409,11.4399825 C210.619189,13.4574289 188.236524,19.4061069 188.786707,27.3807095 C188.972848,30.0787096 180.604423,39.0340067 181.373662,52.8195733 C181.433711,53.8957196 176.235483,52.4765154 170.852248,48.4634699 C166.178795,44.9795456 161.618522,38.9317989 157.097657,38.4345974 C144.948546,37.0984469 129.638413,38.9249541 112.965795,38.0030566 C109.969164,37.8373606 106.995469,36.0740373 103.999839,35.8733307 C102.999334,35.806297 102.010814,37.2719786 101.014583,37.206105 C100.00916,37.1396237 98.6444668,35.6867533 97.6455576,35.6172888 C96.6446405,35.5476847 95.6481263,35.4789358 94.6570761,35.4111323 C93.9009844,35.3594037 90.8561127,37.1108679 90.1068528,37.0602799 C89.0457654,36.988638 90.2839616,35.1155375 89.2388591,35.0463771 C87.0695961,34.9028246 84.8104311,36.0691206 82.7277692,35.9377651 C80.102352,35.7721775 77.6824728,34.3128307 75.2376681,34.1702777 C73.1742728,34.0499642 71.1285957,35.5353901 69.2253452,35.4341595 C66.9472919,35.3129939 64.8494252,33.6095646 62.8461647,33.5195914 C54.5513908,33.147045 48.8241292,33.0598908 47.4189189,33.4071673" id="path-1"></path>
        <path d="M368.248768,117.15316 C369.978812,116.7017 371.491197,116.677017 373.892228,114.025829 C377.429475,110.120047 378.668085,106.962099 383.209611,106.306671 C386.984391,105.7619 391.297903,110.121522 396.401212,115.010737 C401.744583,120.129943 407.638664,122.462251 408.957315,122.170488 C412.399847,121.4088 419.885985,95.8400022 411.118216,88.4842725 C402.629482,81.3626407 404.39609,82.6598563 391.175891,79.6389721 C376.091648,76.1921443 350.549317,64.0597313 344.639868,69.9986681 C342.711015,71.9371465 336.801902,81.1127014 336.303583,90.9009955 C335.94431,97.9580839 330.916473,107.014579 330.916473,110.806922 C330.916473,113.026251 340.99164,114.012311 348.25584,115.312084" id="path-3"></path>
        <path d="M556.930664,78.9426091 C555.74099,71.3462948 547.838453,91.4640866 540.813467,105.542695 C533.788482,119.621303 522.861493,118.177187 521.548004,118.216306 C514.509531,118.425926 515.414711,110.718982 493.714742,110.976543 C471.548004,111.239645 432.243881,91.9025889 435.488798,76.1702008 C438.733715,60.4378127 428.272316,23.0172905 421.512209,16.0649612 C418.597869,13.0677526 400.615786,3.01683355 398.754835,0.416693936 C397.331208,-1.57241328 364.920766,15.4331776 359.760349,10.6400615 C350.893164,2.4040125 347.801172,4.42276047 343.142007,2.22081762 C327.744124,-5.05629219 272.202388,22.6004074 271.740105,25.8761817 C269.596245,41.0677282 285.045795,54.4023776 292.318439,70.8828081 C299.152069,86.3683977 297.959649,110.661114 297.838858,113.022668 C297.190857,125.691583 294.823719,146.34575 302.099152,148.884348 C317.785005,154.357572 330.359299,141.72984 340.162545,139.18362 C340.902656,138.991389 343.069743,139.041757 346.035816,139.249612 M365.417694,140.963654 C372.68757,141.843458 375.610979,142.687749 378.555704,143.310604 C379.520252,143.514621 379.719574,147.205473 382.306614,150.942227 C384.871775,154.647378 389.798158,158.379424 396.941901,163.060067 C411.928191,172.879217 449.684568,208.60047 471.012853,222.243366 C487.819389,232.993871 440.804633,226.81475 432.397805,234.285176 C414.082518,250.560397 408.588173,279.025226 409.713813,280.095241 C411.156613,281.466744 416.055663,292.224889 412.205222,298.11321 C410.292052,301.038941 406.467279,298.293713 402.443624,300.380893 C397.788773,302.795493 392.87308,310.095153 390.428661,314.706495 C377.354344,339.370902 366.236284,367.841435 367.173722,368.735345" id="path-4"></path>
        <path d="M320.355323,33.7701246 C317.133032,33.9669554 318.930583,38.9039953 317.294618,40.5565964 C315.172033,42.7007659 312.618899,41.0955894 313.25309,46.4692131 C313.494646,48.5159645 316.47708,54.4401435 318.787644,56.8525856 C324.217031,62.5213685 322.628807,54.8107052 329.530035,53.8095964 C335.266128,52.977505 324.196429,33.535494 320.355323,33.7701246 Z" id="path-5"></path>
        <radialGradient cx="48.8440225%" cy="44.7406391%" fx="48.8440225%" fy="44.7406391%" r="31.1619982%" gradientTransform="translate(0.488440,0.447406),scale(1.000000,0.968468),rotate(71.396894),translate(-0.488440,-0.447406)" id="radialGradient-6">
            <stop stop-color="#737C70" stop-opacity="0" offset="0%"></stop>
            <stop stop-color="#465741" stop-opacity="0.627950175" offset="63.3913941%"></stop>
            <stop stop-color="#465741" offset="100%"></stop>
        </radialGradient>
    </defs>
    <g id="Welcome" stroke="none" stroke-width="1" fill="none" fill-rule="evenodd">
        <g id="Desktop" transform="translate(0.000000, -1514.000000)">
            <g id="Explore" transform="translate(-7.000000, 1434.000000)">
                <g id="Group-13" transform="translate(-41.000000, 80.000000)">
                    <g id="Map-background" transform="translate(0.000000, 203.000000)">
                        <g id="Full-map" transform="translate(18.613525, 53.788288)">
                            <mask id="mask-2" fill="white">
                                <use xlink:href="#path-1"></use>
                            </mask>
                            <use id="Mask" stroke="#899081" stroke-width="0.718468468" xlink:href="#path-1"></use>
                            <g id="region-shadows" transform="translate(126.972504, 102.756806)" opacity="0.476795015">
                                <path d="M111.101782,45.784036 C114.601718,43.6708748 101.816926,36.9713264 104.125265,34.6544987 C105.170899,33.6050187 116.646744,38.6465847 120.00875,38.3043746 C125.799765,37.714922 124.148321,31.9892429 123.61555,29.8184165 C123.085149,27.65725 118.082111,31.5641105 114.87142,30.4180606 C112.654777,29.6268341 112.173716,23.7756513 111.013862,22.6720724 C107.577569,19.4025057 110.027991,14.3750864 108.100697,11.5554568 C104.757821,6.66483539 107.984174,1.49485634 103.23639,0.152119957 C97.8609176,-1.3681353 103.154958,8.9208975 97.6394027,12.5531737 C96.6869558,13.180409 89.854241,6.12727468 87.5864572,7.48319994 C85.4817028,8.74164866 87.9864107,18.4481906 85.866062,18.1886608 C81.0678124,17.6013569 77.3827267,11.4802941 75.5352712,12.3735566 C73.1964374,13.5044052 70.5536253,8.64531798 68.5302037,9.55020005 C66.0114579,10.676593 62.084625,7.8864808 60.5877593,8.82190877 C59.3922989,9.56898114 60.8970269,10.8687267 60.4078643,11.2762255 C56.3240444,14.6782669 60.1517116,18.9539424 58.059087,21.4203656 C56.7686534,22.9413052 49.9465565,22.4570614 47.4181761,24.5861173 C46.7412029,25.1561715 50.0339402,30.3794068 48.8452902,32.0107592 C47.542735,33.79844 41.7421791,32.000702 40.6965668,32.5538204 C38.4994785,33.716058 31.891474,32.8784189 29.8044726,35.3785802 C28.0559098,37.4733027 30.8692947,42.9381009 28.7015112,43.9665236 C25.3302876,45.5658729 20.1886912,42.2757616 17.8234495,44.2626112 C14.9320217,46.6914675 14.0774504,47.0169458 14.0774504,49.9128325 C14.0774504,52.4826786 12.7038463,57.0571118 14.4380879,62.3758748 C15.4468068,65.4695252 13.4956636,69.2736185 15.5782356,71.2528896 C19.6849748,75.155924 28.3378447,71.885983 30.6155561,76.3326861 C31.4312451,77.9251298 29.7619316,79.4606274 27.3364977,81.0929401 C24.9910684,82.6714098 21.9385783,84.3404129 19.7424059,86.2389911 C16.2614358,89.2482694 17.0114908,93.3042316 12.6194645,95.4359488 C7.37284597,97.9824516 -1.01132429,97.0752855 0.100291813,99.3306934 C0.576101943,100.296086 3.99943352,106.197803 7.90451523,107.613428 C11.1947921,108.806181 14.7614122,105.655145 17.852918,105.295245 C20.0349515,105.041221 25.3710103,107.006852 26.6716974,105.533799 C28.2538406,103.741991 25.7657961,98.4724557 28.4580458,98.3406944 C31.7108572,98.1814986 31.5449748,101.901149 34.6001093,101.609586 C40.5153092,101.045074 42.46002,98.469687 47.2322443,98.8584969 C49.6285938,99.0537359 46.4747603,101.793822 47.7353126,104.140363 C48.4596549,105.488739 53.2958311,99.7335399 54.7207345,100.847616 C56.9320148,102.57653 55.8629439,110.85772 56.5985642,110.695641 C61.1454855,109.693815 61.0905876,107.00239 63.276403,105.300156 C67.4498736,102.050007 71.7140413,98.8353019 75.0834219,92.8132583 C76.1489647,90.9088296 87.5822846,90.3367312 88.1379379,87.9755238 C88.5837263,86.081179 81.8737872,86.7109186 80.3498519,84.5045633 C78.6863953,82.096209 82.1541949,76.8175287 81.627519,73.9239925 C81.2233144,71.7033085 85.8617857,68.9850667 85.7866692,66.5974818 C85.7787391,66.3454216 83.9738079,63.0115501 80.8480088,63.0936417 C79.1859546,63.1372915 76.7234425,66.0141998 74.9016999,66.7112427 C72.4618858,67.6447747 70.4748902,73.383753 68.5000336,73.0350281 C67.221543,72.8092692 70.9055821,64.8320379 69.6661416,64.4569075 C68.1209443,63.9892365 68.9695901,60.0003719 67.3977739,59.61356 C65.0062124,59.0250152 61.483769,60.7121631 59.5633804,60.0464654 C55.101848,58.4998866 54.6277133,55.2483206 54.9354331,54.7772288 C55.1122685,54.5065095 52.9328246,54.19134 51.9471936,52.3404701 C51.3768546,51.2694573 51.9478805,46.1906838 53.9805155,43.7097273 C55.3688701,42.0151548 58.3077248,42.5694509 58.6049547,42.3513728 C58.8510232,42.1708319 61.5056235,44.5380183 61.0157532,46.1050899 C60.6650645,47.2269261 56.9712416,47.6066393 57.6072377,47.8781073 C60.1310976,48.9553896 60.8698787,50.1264999 61.7868438,49.482032 C63.44022,48.3199946 62.3812773,45.1117839 66.7171934,45.5648353 C68.136989,45.7131869 68.942296,49.4470312 71.3002364,50.3394231 C73.1510594,51.0398901 76.4601385,49.2553606 78.6077062,49.921252 C80.2222146,50.4218589 80.3801193,53.6324928 81.8808072,54.254515 C84.1785305,55.2069013 87.4067189,54.1006738 89.3875398,54.3934376 C92.0935137,54.7933784 93.2311179,56.3715786 93.4722674,56.2027119 C94.2313392,55.6711665 92.4277012,53.1485712 93.3138577,52.3888825 C95.2958012,50.6897921 100.085201,50.6211233 101.597294,50.4025698 C105.111867,49.8945836 107.108711,53.4032762 109.814075,51.9244038 C111.174514,51.1807276 109.027999,47.036127 111.101782,45.784036 Z" id="Path" fill="#899081"></path>
                                <path d="M73.8397561,91.9510482 C75.4761425,90.9638746 69.4986442,87.8341479 70.5779023,86.7518305 C71.0667863,86.2615608 76.4322896,88.616753 78.0041874,88.4568879 C80.7117624,88.1815222 79.939634,85.5067433 79.6905379,84.4926311 C79.4425503,83.4830316 77.1033921,85.3081406 75.6022412,84.7727578 C74.565855,84.4031325 74.3409362,81.6697238 73.7986492,81.1541816 C72.1920187,79.6267875 73.337708,77.278204 72.4366059,75.9610003 C70.8736528,73.6763226 72.382126,71.2611416 70.1623114,70.6338758 C67.6490221,69.9236811 70.1242377,74.730253 67.5454534,76.4270886 C67.1001392,76.7201046 63.9055199,73.4251985 62.8452231,74.0586256 C61.8611504,74.6465161 58.0744938,75.9258877 57.2107204,76.3431796 C56.1172044,76.8714611 54.881564,74.6015147 53.9355181,75.0242348 C52.7578847,75.5504348 50.9219035,74.2470202 50.2220475,74.68401 C49.663113,75.0330085 50.3666449,75.640191 50.1379381,75.830556 C48.228558,77.4198363 50.0181745,79.417239 49.039773,80.5694406 C48.4364339,81.279955 45.246779,81.0537381 44.0646409,82.048337 C43.9707188,82.1273589 45.9413315,83.2379203 48.0156162,85.0785668 C48.7718477,85.7496198 47.8318576,88.1156188 48.6644894,88.910521 C49.2838235,89.5017908 50.0416975,90.7822502 51.2632627,90.9282706 C52.3424161,91.0572677 53.8686514,90.0530998 54.7549748,90.4720153 C55.5350662,90.8407208 55.3474586,94.5058979 56.2246169,94.8143068 C56.6347679,94.9585159 58.2245001,89.8438996 61.7738099,89.2873579 C66.4194953,88.5589015 73.2901011,92.2826356 73.8397561,91.9510482 Z" id="Path" fill="#B4B4A3" transform="translate(62.023125, 82.690055) scale(-1, -1) rotate(19.000000) translate(-62.023125, -82.690055) "></path>
                                <path d="M358.254935,117.630883 C361.754871,115.517722 348.970079,108.818173 351.278418,106.501346 C352.324052,105.451866 363.799897,110.493432 367.161903,110.151221 C372.952918,109.561769 371.301475,103.83609 370.768703,101.665263 C370.238302,99.5040968 365.235264,103.410957 362.024573,102.264907 C359.80793,101.473681 359.326869,95.6224982 358.167015,94.5189193 C354.730722,91.2493525 357.181145,86.2219332 355.25385,83.4023036 C351.910975,78.5116822 355.137327,73.3417032 350.389543,71.9989668 C345.014071,70.4787115 350.308111,80.7677443 344.792556,84.4000206 C343.840109,85.0272558 337.007394,77.9741215 334.73961,79.3300468 C332.634856,80.5884955 335.139564,90.2950375 333.019215,90.0355076 C328.220966,89.4482037 324.53588,83.3271409 322.688424,84.2204035 C320.349591,85.3512521 317.706778,80.4921648 315.683357,81.3970469 C313.164611,82.5234399 309.237778,79.7333276 307.740912,80.6687556 C306.545452,81.415828 308.05018,82.7155736 307.561017,83.1230724 C303.477198,86.5251138 307.304865,90.8007892 305.21224,93.2672125 C303.921807,94.788152 297.09971,94.3039083 294.571329,96.4329642 C293.894356,97.0030183 297.187093,102.226254 295.998443,103.857606 C294.695888,105.645287 288.895332,103.847549 287.84972,104.400667 C285.652632,105.562905 279.044627,104.725266 276.957626,107.225427 C275.209063,109.32015 278.022448,114.784948 275.854664,115.81337 C272.483441,117.41272 267.341844,114.122608 264.976603,116.109458 C262.085175,118.538314 261.230604,118.863793 261.230604,121.759679 C261.230604,124.329525 259.856999,128.903959 261.591241,134.222722 C262.59996,137.316372 260.648817,141.120465 262.731389,143.099736 C266.838128,147.002771 275.490998,143.73283 277.768709,148.179533 C278.584398,149.771977 276.915085,151.307474 274.489651,152.939787 C272.144222,154.518257 269.091731,156.18726 266.895559,158.085838 C263.414589,161.095116 264.164644,165.151078 259.772618,167.282796 C254.525999,169.829298 246.141829,168.922132 247.253445,171.17754 C247.729255,172.142933 251.152587,178.04465 255.057668,179.460275 C258.347945,180.653028 261.914565,177.501992 265.006071,177.142091 C267.188105,176.888068 272.524163,178.853699 273.824851,177.380645 C275.406994,175.588838 272.918949,170.319303 275.611199,170.187541 C278.86401,170.028345 278.698128,173.747996 281.753262,173.456432 C287.668462,172.891921 289.613173,170.316534 294.385397,170.705344 C296.781747,170.900583 293.627913,173.640669 294.888466,175.98721 C295.612808,177.335586 300.448984,171.580387 301.873888,172.694463 C304.085168,174.423376 303.016097,182.704567 303.751717,182.542487 C308.298639,181.540662 308.243741,178.849237 310.429556,177.147003 C314.603027,173.896854 318.867195,170.682149 322.236575,164.660105 C323.302118,162.755676 334.735438,162.183578 335.291091,159.822371 C335.736879,157.928026 329.02694,158.557765 327.503005,156.35141 C325.839548,153.943056 329.307348,148.664376 328.780672,145.770839 C328.376468,143.550155 333.014939,140.831914 332.939822,138.444329 C332.931892,138.192268 331.126961,134.858397 328.001162,134.940489 C326.339108,134.984138 323.876596,137.861047 322.054853,138.55809 C319.615039,139.491622 317.628043,145.2306 315.653187,144.881875 C314.374696,144.656116 318.058735,136.678885 316.819295,136.303754 C315.274097,135.836083 316.122743,131.847219 314.550927,131.460407 C312.159366,130.871862 308.636922,132.55901 306.716534,131.893312 C302.255001,130.346733 301.780866,127.095167 302.088586,126.624076 C302.265422,126.353356 300.085978,126.038187 299.100347,124.187317 C298.530008,123.116304 299.101034,118.037531 301.133669,115.556574 C302.522023,113.862002 305.460878,114.416298 305.758108,114.19822 C306.004176,114.017679 308.658777,116.384865 308.168906,117.951937 C307.818218,119.073773 304.124395,119.453486 304.760391,119.724954 C307.284251,120.802236 308.023032,121.973347 308.939997,121.328879 C310.593373,120.166841 309.53443,116.958631 313.870347,117.411682 C315.290142,117.560034 316.095449,121.293878 318.45339,122.18627 C320.304213,122.886737 323.613292,121.102207 325.760859,121.768099 C327.375368,122.268706 327.533272,125.47934 329.03396,126.101362 C331.331684,127.053748 334.559872,125.947521 336.540693,126.240284 C339.246667,126.640225 340.384271,128.218425 340.625421,128.049559 C341.384492,127.518013 339.580854,124.995418 340.467011,124.235729 C342.448954,122.536639 347.238354,122.46797 348.750447,122.249417 C352.26502,121.74143 354.261864,125.250123 356.967229,123.771251 C358.327667,123.027574 356.181152,118.882974 358.254935,117.630883 Z" id="Path" fill="#899081" transform="translate(309.275654, 127.195841) rotate(142.000000) translate(-309.275654, -127.195841) "></path>
                                <path d="M308.676801,105.505786 C310.313187,104.518613 304.335689,101.388886 305.414947,100.306569 C305.903831,99.8162988 311.269334,102.171491 312.841232,102.011626 C315.548807,101.73626 314.776678,99.0614813 314.527582,98.0473691 C314.279595,97.0377696 311.940437,98.8628786 310.439286,98.3274958 C309.402899,97.9578705 309.177981,95.2244618 308.635694,94.7089196 C307.029063,93.1815255 308.174752,90.832942 307.27365,89.5157383 C305.710697,87.2310606 307.219171,84.8158796 304.999356,84.1886138 C302.486067,83.4784191 304.961282,88.284991 302.382498,89.9818266 C301.937184,90.2748426 298.742564,86.9799365 297.682268,87.6133636 C296.698195,88.2012541 297.869265,92.7357126 296.877901,92.6144719 C294.634491,92.34011 292.911538,89.4806257 292.047765,89.8979176 C290.954249,90.4261991 289.718608,88.1562527 288.772563,88.5789728 C287.594929,89.1051728 285.758948,87.8017582 285.059092,88.238748 C284.500157,88.5877465 285.203689,89.194929 284.974983,89.385294 C283.065603,90.9745743 284.855219,92.971977 283.876817,94.1241786 C283.273478,94.834693 280.083824,94.6084761 278.901685,95.603075 C278.807763,95.6820969 280.778376,96.7926583 282.852661,98.6333048 C283.608892,99.3043578 282.668902,101.670357 283.501534,102.465259 C284.120868,103.056529 284.878742,104.336988 286.100307,104.483009 C287.179461,104.612006 288.705696,103.607838 289.592019,104.026753 C290.372111,104.395459 290.184503,108.060636 291.061661,108.369045 C292.008658,108.702009 291.545151,106.610377 291.651486,104.478748 C291.674264,104.022137 292.638834,103.670031 292.626436,103.220768 C292.580299,101.548865 291.776033,100.025186 292.583791,99.9692936 C292.915089,99.9463696 294.239636,101.069799 295.506344,101.08076 C295.965853,101.084736 296.170166,100.056912 296.590534,99.9102951 C297.327824,99.653141 298.21578,100.269188 298.630646,100.759218 C299.020301,101.219469 300.048759,100.338198 300.120627,101.016517 C300.311373,102.816855 298.881012,106.467715 299.353329,106.668904 C301.412525,107.546043 304.125034,107.678949 304.233,107.663357 C305.87623,107.426049 306.80985,109.065152 308.074737,108.374289 C308.710806,108.026877 307.707208,106.090707 308.676801,105.505786 Z" id="Path" fill="#B4B4A3" transform="translate(296.860169, 96.331514) scale(-1, -1) rotate(161.000000) translate(-296.860169, -96.331514) "></path>
                            </g>
                            <g id="Highlights" transform="translate(3.658997, 50.292793)">
                                <path d="M186.380903,489.316221 C186.542435,487.868532 186.036511,457.210437 191.344067,444.239259 C195.837648,433.257359 205.91331,439.758435 209.447018,437.676173 C217.811636,432.747263 226.79448,417.21429 237.877979,408.273912 C254.166599,395.134882 272.805044,384.145847 272.10724,377.852693 C268.798465,348.012438 265.673041,328.023551 255.472587,290.419772 C254.329496,286.205791 256.059853,280.069701 259.483005,272.852904 M268.914215,256.144026 C279.712726,238.956887 294.15059,219.71151 301.847641,205.805437 C312.450072,186.650288 311.149885,170.482329 320.458937,166.445078 C323.380629,165.177966 331.668483,161.231304 335.900146,159.466322 M357.980241,159.655897 C359.339857,160.296965 360.679838,161.098029 361.991106,162.081034 C373.279531,170.543511 367.483038,195.493314 387.390158,204.103392 C392.138849,206.157261 410.283603,201.154039 414.075955,203.688093 C423.407839,209.92367 429.969648,206.952514 433.236444,211.66955 C436.060166,215.746817 419.460131,216.9102 408.468284,236.283391 C401.85379,247.941474 402.237417,265.063755 395.407925,279.594765 C393.340073,283.994503 398.811483,289.651213 396.715095,294.023568 C395.513392,296.529915 388.047271,296.105807 386.89543,298.591857 C369.567992,335.990158 361.62248,369.69655 358.925156,365.277984" id="Shape" stroke="#E53D27" stroke-width="1.43693694" stroke-linecap="round"></path>
                                <path d="M225.793667,231.883184 C233.609851,227.163995 239.832327,222.130878 238.307435,215.917564 C234.444209,200.176499 227.675495,189.007911 217.928275,186.251268 C200.819284,181.412617 178.510567,194.533979 175.099749,197.375374 C159.905638,210.032885 123.576577,216.512951 123.576577,235.623539 C123.576577,254.734127 148.864189,301.735978 171.290449,296.794789 C193.71671,291.853599 201.391494,281.714519 200.478554,252.69663 C200.358971,248.895671 203.566215,245.521599 208.164153,242.30186" id="Path" stroke="#E53D27" stroke-width="1.52315307" stroke-linecap="round"></path>
                                <path d="M181.822338,229.218805 C183.278219,223.962899 189.592272,226.300272 185.364253,220.213637 C183.386849,217.366976 168.467937,222.171834 164.056272,222.945194 C155.058809,224.52244 145.523633,229.84117 145.523633,240.002584 C145.523633,247.814152 153.752915,253.080504 159.249077,259.088284 C164.897096,265.262056 164.160064,271.33499 172.329822,269.526503 C179.692213,267.896737 182.492565,259.892778 182.845089,250.979993" id="Path" stroke="#E53D27" stroke-width="1.67273829" stroke-linecap="round"></path>
                                <text id="600m" transform="translate(181.833728, 239.318952) rotate(-93.000000) translate(-181.833728, -239.318952) " font-family="Montserrat-ExtraBold, Montserrat" font-size="4.31081081" font-weight="600" fill="#FFFFFF">
                                    <tspan x="173.57134" y="240.818952">600m</tspan>
                                </text>
                                <text id="500m" transform="translate(218.054424, 236.025053) rotate(-31.000000) translate(-218.054424, -236.025053) " font-family="Montserrat-ExtraBold, Montserrat" font-size="4.31081081" font-weight="600" fill="#FFFFFF">
                                    <tspan x="209.792037" y="237.525053">500m</tspan>
                                </text>
                                <text id="400m" transform="translate(241.060179, 248.956567) rotate(-52.000000) translate(-241.060179, -248.956567) " font-family="Montserrat-ExtraBold, Montserrat" font-size="4.31081081" font-weight="600" fill="#FFFFFF">
                                    <tspan x="232.797792" y="250.456567">400m</tspan>
                                </text>
                                <text id="400m" transform="translate(264.015675, 262.662124) rotate(-62.000000) translate(-264.015675, -262.662124) " font-family="Montserrat-ExtraBold, Montserrat" font-size="4.31081081" font-weight="600" fill="#FFFFFF">
                                    <tspan x="255.753288" y="264.162124">400m</tspan>
                                </text>
                                <text id="400m" transform="translate(348.688935, 157.334664) rotate(-2.000000) translate(-348.688935, -157.334664) " font-family="Montserrat-ExtraBold, Montserrat" font-size="4.31081081" font-weight="600" fill="#FFFFFF">
                                    <tspan x="340.426548" y="158.834664">400m</tspan>
                                </text>
                                <text id="480m" transform="translate(357.356190, 139.374147) rotate(5.000000) translate(-357.356190, -139.374147) " font-family="Montserrat-ExtraBold, Montserrat" font-size="4.31081081" font-weight="600" fill="#FFFFFF">
                                    <tspan x="349.093803" y="140.874147">480m</tspan>
                                </text>
                                <text id="560m" transform="translate(359.511596, 116.383156) rotate(5.000000) translate(-359.511596, -116.383156) " font-family="Montserrat-ExtraBold, Montserrat" font-size="4.31081081" font-weight="600" fill="#FFFFFF">
                                    <tspan x="351.249208" y="117.883156">560m</tspan>
                                </text>
                                <path d="M19.7913145,336.291918 C19.9830687,336.310685 39.7414516,323.248549 48.0035921,304.022764 C54.5237751,288.850469 48.7682022,266.674338 55.9271329,265.923847 C64.8379311,264.989704 80.6678062,239.873468 90.6138596,244.881525 C96.7286216,247.960442 120.709595,280.291833 140.131271,298.918999 C158.683334,316.712127 172.840264,320.89603 173.1032,321.265438 C177.251172,327.093065 178.635522,343.238887 184.089727,356.143865 C186.084747,360.864205 198.830123,365.338991 201.963128,366.40478 C208.702967,368.697545 217.992523,359.662994 220.05501,357.832 C221.753552,356.324102 220.216842,352.249615 221.182974,347.472007 C221.672545,345.051033 225.430959,342.383183 225.852338,339.403508 C228.641824,319.678391 226.615747,289.516763 226.129248,273.971436 C225.982957,269.296942 228.930412,264.378358 233.414641,258.871439 M248.067192,242.384074 C251.770873,238.154139 255.528181,233.581052 258.970787,228.583374 C267.148003,216.712398 275.296165,202.52943 272.122128,184.638924 C269.531446,170.036511 251.668227,175.432228 246.717131,167.316601 C244.283523,163.327534 241.229751,163.058613 238.688009,161.200445 C234.016773,157.785489 232.141222,150.104459 227.68782,149.626112 C217.239873,148.503883 209.016623,161.768331 205.742062,164.510664 C192.536002,175.570288 154.31258,190.052223 128.265768,205.884163 C127.115394,206.58339 114.218179,200.524278 114.279174,194.113367 C114.363446,185.255818 112.888828,171.962393 116.321703,156.560296 C117.130361,152.932132 123.524141,148.111498 124.527387,144.343227 C130.61861,121.464105 133.913423,98.022719 134.164619,83.0292404 C134.330578,73.1234262 123.262193,71.11096 122.281777,72.0566383 C121.713413,72.6048649 112.804454,80.9400491 97.049722,82.3483906 C89.0754963,83.0612198 79.5965112,80.5626817 70.4020538,82.9156626 C61.1610407,85.2805577 52.2002717,92.4942327 42.4889325,92.101106 C27.8685761,91.5092564 13.0471529,83.1062532 0,73.805941" id="Shape" stroke="#E53D27" stroke-width="1.43693694" stroke-linecap="round"></path>
                                <g id="Path" stroke-linecap="round" stroke="#E53D27" stroke-width="1.43693694">
                                    <use xlink:href="#path-3"></use>
                                    <use xlink:href="#path-3"></use>
                                </g>
                                <g id="Shape" stroke-linecap="round" stroke="#E53D27" stroke-width="1.43693694">
                                    <use xlink:href="#path-4"></use>
                                    <use xlink:href="#path-4"></use>
                                </g>
                                <g id="Oval" stroke="#E53D27" stroke-width="1.43693694">
                                    <use xlink:href="#path-5"></use>
                                    <use xlink:href="#path-5"></use>
                                </g>
                            </g>
                            <path d="M178.758747,247.668166 C182.169564,244.826772 204.478281,231.70541 221.587273,236.544061 C231.334492,239.300704 238.103206,250.469292 241.966432,266.210357 C243.491325,272.42367 237.268848,277.456788 229.452664,282.175977 L229.452664,282.175977 L211.82315,292.594653 C207.225212,295.814392 204.017969,299.188463 204.137552,302.989423 C205.050491,332.007312 197.375707,342.146392 174.949447,347.087581 C152.523186,352.028771 127.235574,305.026919 127.235574,285.916332 C127.235574,274.832191 139.45667,267.996958 152.686944,261.740971 L154.058734,261.095716 L154.058734,261.095716 L155.434964,260.453691 C164.159335,256.395852 172.984984,252.478021 178.758747,247.668166 Z M348.298865,120.291461 C351.962723,116.60932 363.173461,119.873806 374.759559,123.707992 L375.881725,124.080607 C376.630296,124.329917 377.379467,124.580742 378.127311,124.83137 L379.247842,125.206949 C384.843114,127.081966 390.309615,128.897717 394.834888,129.931765 C406.671578,132.63651 406.494101,131.879653 412.42016,136.803212 L412.894602,137.198523 C413.46327,137.673506 414.086269,138.197398 414.777213,138.777065 C423.544982,146.132795 416.058844,171.701593 412.616313,172.463281 C411.297661,172.755044 405.40358,170.422736 400.060209,165.30353 C394.9569,160.414315 390.643389,156.054693 386.868608,156.599464 C382.327082,157.254891 381.088472,160.41284 377.551225,164.318622 C375.537457,166.542199 374.148793,166.918203 372.732538,167.248 L372.404923,167.324107 C372.240574,167.36257 372.075189,167.402263 371.907765,167.445953 L371.907765,167.445953 L351.914837,165.604877 C344.650638,164.305103 334.57547,163.319044 334.57547,161.099715 C334.57547,157.307372 339.603307,148.250877 339.962581,141.193788 C340.460899,131.405494 346.370012,122.229939 348.298865,120.291461 Z M324.01432,84.0629174 C327.855426,83.8282868 338.925125,103.270298 333.189032,104.102389 C326.287804,105.103498 327.876028,112.814161 322.446641,107.145378 C320.136077,104.732936 317.153643,98.8087573 316.912087,96.7620059 C316.277897,91.3883822 318.83103,92.9935587 320.953615,90.8493892 C321.558211,90.2386453 321.693862,89.1793179 321.78725,88.0764481 L321.81915,87.6860515 C321.961056,85.9270668 322.122976,84.1784485 324.01432,84.0629174 Z M190.039901,539.609013 C190.201432,538.161325 189.695508,507.50323 195.003064,494.532052 C199.496645,483.550152 209.572307,490.051228 213.106015,487.968966 C221.470633,483.040056 230.453477,467.507083 241.536976,458.566704 C257.825596,445.427675 276.464041,434.43864 275.766238,428.145485 C272.457462,398.305231 269.332038,378.316344 259.131584,340.712564 C257.988493,336.498584 259.71885,330.362494 263.142002,323.145697 M272.573212,306.436819 C283.371724,289.24968 297.809587,270.004303 305.506639,256.09823 C316.109069,236.943081 314.808882,220.775121 324.117934,216.737871 C327.039626,215.470759 335.32748,211.524097 339.559144,209.759115 M361.639238,209.94869 C362.998854,210.589758 364.338835,211.390822 365.650103,212.373827 C376.938528,220.836304 371.142035,245.786106 391.049155,254.396185 C395.797847,256.450054 413.9426,251.446832 417.734952,253.980886 C427.066836,260.216463 433.628645,257.245307 436.895441,261.962343 C439.719163,266.03961 423.119128,267.202993 412.127281,286.576184 C405.512787,298.234267 405.896414,315.356548 399.066922,329.887558 C396.99907,334.287296 402.47048,339.944006 400.374092,344.316361 C399.172389,346.822708 391.706268,346.398599 390.554427,348.88465 C373.226989,386.282951 365.281477,419.989343 362.584153,415.570776 M23.4503116,386.584711 C23.6420659,386.603477 43.4004487,373.541342 51.6625892,354.315557 C58.1827722,339.143262 52.4271993,316.967131 59.5861301,316.21664 C68.4969282,315.282496 84.3268034,290.166261 94.2728568,295.174318 C100.387619,298.253235 124.368592,330.584625 143.790268,349.211792 C162.342331,367.004919 176.499261,371.188823 176.762197,371.558231 C180.910169,377.385858 182.29452,393.531679 187.748724,406.436658 C189.743744,411.156997 202.48912,415.631784 205.622126,416.697573 C212.361964,418.990337 221.65152,409.955786 223.714007,408.124793 C225.412549,406.616895 223.875839,402.542407 224.841971,397.7648 C225.331542,395.343826 229.089956,392.675975 229.511335,389.696301 C232.300821,369.971183 230.274744,339.809556 229.788245,324.264229 C229.641955,319.589735 232.589409,314.671151 237.073638,309.164231 M251.726189,292.676867 C255.42987,288.446932 259.187178,283.873844 262.629784,278.876167 C270.807,267.005191 278.955162,252.822223 275.781125,234.931717 C273.190443,220.329303 255.327224,225.72502 250.376128,217.609394 C247.94252,213.620327 244.888749,213.351406 242.347006,211.493238 C237.67577,208.078281 235.800219,200.397252 231.346817,199.918905 C220.89887,198.796676 212.67562,212.061123 209.401059,214.803457 C196.195,225.863081 157.971577,240.345015 131.924765,256.176956 C130.774392,256.876183 117.877176,250.817071 117.938171,244.406159 C118.022443,235.548611 116.547825,222.255185 119.9807,206.853089 C120.789358,203.224925 127.183138,198.404291 128.186384,194.63602 C134.277607,171.756897 137.57242,148.315512 137.823616,133.322033 C137.989575,123.416219 126.92119,121.403753 125.940774,122.349431 C125.37241,122.897658 116.463451,131.232842 100.708719,132.641183 C92.7344934,133.354013 83.2555083,130.855475 74.0610509,133.208455 C64.8200379,135.57335 55.8592688,142.787026 46.1479296,142.393899 C31.5275733,141.802049 16.70615,133.399046 3.65899713,124.098734 M560.589661,129.235402 C559.399987,121.639088 551.49745,141.756879 544.472464,155.835487 C537.447479,169.914095 526.52049,168.46998 525.207001,168.509098 C518.168529,168.718719 519.073708,161.011775 497.37374,161.269336 C475.207002,161.532438 435.902878,142.195382 439.147795,126.462994 C442.392712,110.730606 431.931313,73.3100833 425.171206,66.357754 C422.256866,63.3605454 404.274783,53.3096263 402.413833,50.7094867 C400.990205,48.7203795 368.579763,65.7259704 363.419346,60.9328543 C354.552161,52.6968053 351.460169,54.7155533 346.801004,52.5136104 C331.403122,45.2365006 275.861385,72.8932002 275.399102,76.1689745 C273.255242,91.360521 288.704792,104.69517 295.977436,121.175601 C302.811066,136.661191 301.618646,160.953906 301.497856,163.31546 C300.849855,175.984376 298.482716,196.638542 305.758149,199.177141 C321.444002,204.650365 334.018296,192.022633 343.821542,189.476413 C344.561653,189.284182 346.72874,189.33455 349.694813,189.542404 M369.076691,191.256447 C376.346567,192.136251 379.269976,192.980542 382.214701,193.603397 C383.179249,193.807414 383.378571,197.498266 385.965611,201.235019 C388.530772,204.940171 393.457156,208.672217 400.600898,213.35286 C415.587189,223.172009 453.343565,258.893262 474.67185,272.536159 C491.478386,283.286663 444.46363,277.107543 436.056802,284.577968 C417.741515,300.853189 412.24717,329.318018 413.37281,330.388034 C414.815611,331.759537 419.714661,342.517682 415.864219,348.406003 C413.951049,351.331734 410.126276,348.586506 406.102621,350.673686 C401.44777,353.088286 396.532077,360.387946 394.087659,364.999287 C381.013341,389.663695 369.895281,418.134228 370.832719,419.028138" id="Highlights-(-blank)" stroke="#59605D" stroke-width="1.43693694" opacity="0.200520833" stroke-linecap="round" stroke-dasharray="47.41891891891892"></path>
                            <g id="Details" transform="translate(100.755301, 5.747748)" fill="#FFFFFF">
                                <text id="Slievenaglogh-586m" stroke="#000000" stroke-width="0.718468468" font-family="Montserrat-ExtraBold, Montserrat" font-size="7.18468468" font-weight="600">
                                    <tspan x="266.24286" y="136.666168">Slievenaglogh</tspan>
                                    <tspan x="282.825113" y="145.666168">586m</tspan>
                                </text>
                                <polygon id="Triangle" stroke="#FFFFFF" stroke-width="2.87387387" stroke-linejoin="round" points="257.108651 132.198198 259.982524 137.945946 254.234777 137.945946"></polygon>
                                <path d="M172,181.001102 C174.123776,184.413186 176.907562,186.172949 180.351359,186.28039 C183.795157,186.38783 186.633874,184.627701 188.867512,181 C189.005815,186.086721 189.035838,188.69177 188.957582,188.815147 C188.836755,189.005641 185.955016,189.048905 180.312363,188.944938 L172.068182,188.944938 L172,181.001102 Z" id="Triangle" stroke="#FFFFFF" stroke-width="4.02342342" stroke-linejoin="round"></path>
                                <text id="Slieve-Bearnagh-727m" stroke="#000000" stroke-width="0.718468468" font-family="Montserrat-ExtraBold, Montserrat" font-size="7.18468468" font-weight="600">
                                    <tspan x="1.88597973" y="288.263014">Slieve Bearnagh</tspan>
                                    <tspan x="22.603018" y="297.263014">727m</tspan>
                                </text>
                                <text id="Hares-Gap-727m" stroke="#000000" stroke-width="0.718468468" font-family="Montserrat-ExtraBold, Montserrat" font-size="11.184685" font-weight="600">
                                    <tspan x="154.022434" y="204.920672">Hares Gap</tspan>
                                    <tspan x="169.820801" y="218.920672">727m</tspan>
                                </text>
                                <polygon id="Triangle" stroke="#FFFFFF" stroke-width="2.87387387" stroke-linejoin="round" points="70.3068488 283.076577 73.1807227 288.824324 67.4329749 288.824324"></polygon>
                                <path d="M80.3654074,0 L80.3654074,5.74774775 L74.6176596,5.74774775 L74.6176596,0 L80.3654074,0 Z M77.6151101,1.25810811 L75.7758308,1.25810811 L75.7758308,5.28153153 L76.9138848,5.28153153 L76.9138848,4.22969369 L77.6151101,4.22969369 C78.1611461,4.22969369 78.1611461,4.22969369 78.5634885,4.04863964 C78.9658308,3.86758559 78.9658308,3.86758559 79.1842452,3.53421622 C79.4026596,3.20084685 79.4026596,3.20084685 79.4026596,2.74677477 C79.4026596,2.2927027 79.4026596,2.2927027 79.1842452,1.95645946 C78.9658308,1.62021622 78.9658308,1.62021622 78.5634885,1.43916216 C78.2416146,1.29431892 78.2416146,1.29431892 77.8277767,1.26535027 L77.6151101,1.25810811 Z M77.5461371,2.15475676 C77.8967497,2.15475676 77.8967497,2.15475676 78.0749299,2.30994595 C78.2531101,2.46513514 78.2531101,2.46513514 78.2531101,2.74677477 C78.2531101,3.02841441 78.2531101,3.02841441 78.0749299,3.18072973 C77.8967497,3.33304505 77.8967497,3.33304505 77.5461371,3.33304505 L76.9138848,3.33304505 L76.9138848,2.15475676 L77.5461371,2.15475676 Z" id="Parking" fill-rule="nonzero"></path>
                            </g>
                        </g>
                        <rect id="radial-fade-" fill="url(#radialGradient-6)" x="-5.68434189e-14" y="0" width="617.882883" height="638"></rect>
                    </g>
                    <g id="Gridlines" opacity="0.211542039" transform="translate(238.000000, 0.000000)" stroke="#979797" stroke-linecap="square">
                        <line x1="65.5" y1="164" x2="65.5" y2="523.5" id="Line-2"></line>
                        <line x1="130.5" y1="164" x2="130.5" y2="523.5" id="Line-2"></line>
                        <line x1="195.5" y1="164" x2="195.5" y2="523.5" id="Line-2"></line>
                        <line x1="260.5" y1="164" x2="260.5" y2="523.5" id="Line-2"></line>
                        <line x1="325.5" y1="164" x2="325.5" y2="523.5" id="Line-2"></line>
                        <line x1="390.5" y1="164" x2="390.5" y2="523.5" id="Line-2"></line>
                        <line x1="455.5" y1="164" x2="455.5" y2="523.5" id="Line-2"></line>
                        <line x1="520.5" y1="164" x2="520.5" y2="523.5" id="Line-2"></line>
                        <line x1="585.5" y1="164" x2="585.5" y2="523.5" id="Line-2"></line>
                        <line x1="650.5" y1="164" x2="650.5" y2="523.5" id="Line-2"></line>
                        <line x1="715.5" y1="164" x2="715.5" y2="523.5" id="Line-2"></line>
                        <line x1="0.5" y1="164" x2="0.5" y2="523.5" id="Line-2"></line>
                    </g>
                </g>
            </g>
        </g>
    </g>
</svg>