<?xml version="1.0" encoding="UTF-8"?>
<svg width="176px" height="130px" viewBox="0 0 176 130" version="1.1" xmlns="http://www.w3.org/2000/svg" xmlns:xlink="http://www.w3.org/1999/xlink">
    <title>Bubble chart</title>
    <g id="Page-1" stroke="none" stroke-width="1" fill="none" fill-rule="evenodd">
        <g id="Artboard" transform="translate(-1088.000000, -350.000000)">
            <g id="Bubble-chart" transform="translate(1089.500000, 350.000000)">
                <g id="Axis" stroke-linecap="round">
                    <line x1="0.5" y1="128.5" x2="172.5" y2="128.5" id="Line-3" stroke="#465741" stroke-width="2"></line>
                    <line x1="2.5" y1="0.5" x2="5.5" y2="0.5" id="Line-4" stroke="#212641"></line>
                    <line x1="2.5" y1="26.25" x2="5.5" y2="26.25" id="Line-4" stroke="#212641"></line>
                    <line x1="2.5" y1="52" x2="5.5" y2="52" id="Line-4" stroke="#212641"></line>
                    <line x1="2.5" y1="77.75" x2="5.5" y2="77.75" id="Line-4" stroke="#212641"></line>
                    <line x1="2.5" y1="103.5" x2="5.5" y2="103.5" id="Line-4" stroke="#212641"></line>
                </g>
                <g id="Data" transform="translate(24.000000, 0.000000)">
                    <circle id="Oval" fill="#BC2A3A" cx="11" cy="39" r="3"></circle>
                    <circle id="Oval" fill="#BC2A3A" cx="110" cy="3" r="3"></circle>
                    <circle id="Oval" fill="#FE4746" cx="118" cy="82" r="3"></circle>
                    <circle id="Oval" fill="#465741" cx="109.5" cy="25.5" r="6.5"></circle>
                    <circle id="Oval" fill="#E03642" cx="105" cy="57" r="5"></circle>
                    <circle id="Oval" fill="#FE4746" cx="69" cy="18" r="5"></circle>
                    <circle id="Oval" fill="#E03642" cx="82" cy="34" r="3"></circle>
                    <circle id="Oval" fill="#E03642" cx="54" cy="49" r="3"></circle>
                    <circle id="Oval" fill="#FE4746" cx="67.5" cy="65.5" r="6.5"></circle>
                    <circle id="Oval" fill="#BC2A3A" cx="70" cy="77" r="3"></circle>
                    <circle id="Oval" fill="#465741" cx="42.5" cy="64.5" r="5.5"></circle>
                    <circle id="Oval" fill="#FE4746" cx="32.5" cy="90.5" r="3.5"></circle>
                    <circle id="Oval" fill="#E03642" cx="3.5" cy="97.5" r="3.5"></circle>
                    <circle id="Oval" fill="#465741" cx="20.5" cy="101.5" r="4.5"></circle>
                    <circle id="Oval" fill="#E03642" cx="49.5" cy="83.5" r="4.5"></circle>
                    <circle id="Oval" fill="#FE4746" cx="20.5" cy="82.5" r="5.5"></circle>
                </g>
            </g>
        </g>
    </g>
</svg>