<?xml version="1.0" encoding="UTF-8"?>
<svg width="159px" height="158px" viewBox="0 0 159 158" version="1.1" xmlns="http://www.w3.org/2000/svg" xmlns:xlink="http://www.w3.org/1999/xlink">
    <title>Chord</title>
    <g id="Page-1" stroke="none" stroke-width="1" fill="none" fill-rule="evenodd">
        <g id="Artboard" transform="translate(-1365.000000, -613.000000)">
            <g id="Chord" transform="translate(1366.000000, 614.000000)">
                <g id="inner-shapes" opacity="0.507207961" transform="translate(10.960689, 9.281751)" fill-opacity="0.5">
                    <path d="M39.3535202,7.28880528 C37.9764043,18.7586946 38.6981654,23.5942252 41.5188034,21.7953971 C44.3394414,19.9965689 44.0817917,14.8671744 40.7458542,6.40721348 L50.3005417,2.97459629 C51.0596562,20.1415885 47.8133997,31.0414908 40.5617721,35.6743033 C53.1232956,32.8976106 62.0224655,21.1797558 67.2592819,0.520738869 C76.4513392,0.187893817 85.8555547,1.79881504 95.4719284,5.35350254 C105.088302,8.90819004 112.555099,14.2379426 117.872319,21.3427604 C99.213925,38.8530222 82.5840422,53.2382761 67.9826706,64.4985221 C54.4367721,74.9448111 10.8676704,85.4531307 3.34253385,86.9492057 C-1.11938021,64.531888 -1.11417188,51.887845 3.35815885,49.0170768 C9.02456004,51.4308103 12.7011551,51.4068845 14.387944,48.9452994 C16.0747329,46.4837143 12.6429295,45.77945 4.09253385,46.8325064 C12.6446172,26.0180533 24.3982793,12.8368196 39.3535202,7.28880528 Z" id="Rectangle" fill="#465741"></path>
                    <path d="M50.3342331,2.94871738 C54.014746,1.39144501 56.8365233,0.460129905 58.7995651,0.154772072 C60.7626069,-0.150585761 62.9862397,-0.00410138637 65.4704635,0.594225197 C71.94982,34.5655932 76.563915,52.3465177 79.3127487,53.9369986 C87.6493372,58.7605663 100.739507,47.8305533 118.583257,21.1469596 C125.97799,26.5527073 134.784009,35.5008667 137.523686,53.0239127 C138.41143,58.7019457 137.946912,69.489055 136.130132,85.3852408 C129.239855,88.389112 98.2659949,55.4788737 72.2902878,64.8852408 C41.4458154,76.0546935 22.7661215,111.619872 20.2121628,115.258288 C14.2900666,109.246707 10.2246369,104.440392 8.0158737,100.839342 C6.4245067,98.2448626 4.78974108,93.7578834 3.11157682,87.3784049 C31.5692275,79.06357 48.5832249,69.9265258 54.153569,59.9672721 C59.7239131,50.0080184 58.4508012,31.0018335 50.3342331,2.94871738 Z" id="Rectangle" fill="#BC2A3A"></path>
                    <path d="M133.527592,85.2827018 C134.491794,85.563482 130.901641,108.470167 117.292241,121.674303 C111.990091,126.818565 100.553242,130.90971 82.981694,133.947741 C85.3697148,123.47834 84.137944,118.68472 79.2863815,119.566881 C74.434819,120.449043 74.5370325,125.871243 79.5930221,135.833483 C65.6746187,138.50126 55.6417411,139.00777 49.4943893,137.353014 C32.6321888,132.814014 15.4868748,118.60841 19.5236862,115.464342 C66.4064987,78.9496939 80.3205612,69.7885611 133.527592,85.2827018 Z" id="Rectangle" fill="#FE4746"></path>
                </g>
                <path d="M78.0752648,-0.0332896474 C100.112757,-0.5 119.614881,8.23431826 133.732544,22.3532711 C147.850835,36.4728515 156.584165,55.9775292 156.584165,77.5170898 C156.584165,95.9253163 150.376199,112.801929 139.883842,126.100086 C129.237213,139.593769 114.178837,149.403225 96.7123602,153.390687 L96.7123602,153.390687 L95.1928743,153.726466 L92.5164687,143.236536 C108.129246,140.162727 121.795214,131.665134 131.471185,119.788073 C140.86679,108.255157 146.5,93.5354168 146.5,77.5 C146.5,58.9984609 139.00077,42.2484609 126.876154,30.1238457 C114.751539,17.9992304 98.0015391,10.5 79.5,10.5 C78.9900111,10.5 78.4813529,10.5056971 77.9740856,10.5170313 C77.7941084,10.5210526 77.6139881,10.5257907 77.4337667,10.5309999 C77.44368,10.350623 77.453653,10.1701007 77.4636857,9.98943328 C77.6521888,6.59487521 77.8559417,3.25356507 78.0752648,-0.0332896474 Z" id="Combined-Shape" stroke="#FFFFFF" fill="#E03642"></path>
                <path d="M4.38465256,54.2942285 L15.4471436,57.7861477 C13.5311581,64.0188648 12.5,70.6390106 12.5,77.5 C12.5,96.0015391 19.9992304,112.751539 32.1238457,124.876154 C44.2484609,137.00077 60.9984609,144.5 79.5,144.5 C83.6826466,144.5 87.7757846,144.116785 91.7462066,143.383484 L91.7462066,143.383484 L94.1344757,153.900953 C80.0207069,157.147968 66.106141,156.275035 53.4826006,152.215427 C40.3032702,147.977081 28.5312078,140.264686 19.4093996,130.139617 C10.5249971,120.278064 4.15474597,108.128183 1.4449301,94.6711167 C-1.08879648,82.088518 -0.423112751,68.3622411 4.38465256,54.2942285 L4.38465256,54.2942285 Z" id="Combined-Shape" stroke="#FFFFFF" fill="#FE4746"></path>
                <path d="M46.395122,6.45290326 C46.463411,6.60510121 46.5318872,6.75773647 46.6005507,6.91080905 C48.1105941,10.277173 49.5228892,13.4352582 50.8374362,16.3850648 C33.948983,25.0106175 21.1065714,39.6556067 15.5328808,57.5093922 L15.5328808,57.5093922 L4.29108333,53.7057714 C11.2022153,33.3453591 26.5555576,15.5454861 45.9359824,6.6609321 C46.0897578,6.59043699 46.2437929,6.52050029 46.395122,6.45290326 Z" id="Combined-Shape" stroke="#FFFFFF" fill="#465741"></path>
                <path d="M77.2331462,-0.455681871 L77.16679,10.53986 C68.0913594,10.8504053 59.4740763,12.9658386 51.6627539,16.5386161 C51.5034932,16.6114595 51.3444717,16.6849525 51.1857127,16.7584196 C51.1205591,16.5952515 51.0554631,16.4322167 50.9904248,16.2693154 C49.7233762,13.0957428 48.4373016,9.87034833 47.1331291,6.59512806 C57.4465755,1.31442908 63.282658,0.158272581 77.2331462,-0.455681871 L77.2331462,-0.455681871 Z" id="Combined-Shape" stroke="#FFFFFF" fill="#BC2A3A"></path>
            </g>
        </g>
    </g>
</svg>