<?xml version="1.0" encoding="UTF-8"?>
<svg width="157px" height="155px" viewBox="0 0 157 155" version="1.1" xmlns="http://www.w3.org/2000/svg" xmlns:xlink="http://www.w3.org/1999/xlink">
    <title>Donut</title>
    <g id="Page-1" stroke="none" stroke-width="1" fill="none" fill-rule="evenodd">
        <g id="Artboard" transform="translate(-1366.000000, -345.000000)">
            <g id="Donut" transform="translate(1366.500000, 345.000000)">
                <path d="M77.5741554,0 C120.376224,0 155.084165,34.7150217 155.084165,77.5170898 C155.084165,114.736883 129.545917,145.656879 94.5576759,153.133789 L94.5576759,153.133789 L87.6463526,126.050754 C110.088814,121.570262 127,101.760041 127,78 C127,50.9380473 105.061953,29 78,29 C77.3617019,29 76.7262543,29.0122047 76.093878,29.0363934 C76.4633614,18.9261637 76.9570982,9.24743921 77.5741554,0 Z" id="Combined-Shape" fill="#E03642"></path>
                <path d="M4.0911124,52.8536798 L31.5477,62.3638693 C29.8954523,67.2743309 29,72.5325934 29,78 C29,105.061953 50.9380473,127 78,127 C81.3922829,127 84.7040526,126.655282 87.9021904,125.998965 L94.9811378,153.177734 C39.0579875,165.670737 -15.5711395,111.468417 4.0911124,52.8536798 L4.0911124,52.8536798 Z" id="Combined-Shape" fill="#FE4746"></path>
                <path d="M45.1443458,7.115448 C50.1542322,18.2840679 54.0880579,27.159853 56.9458228,33.7428031 C44.9413291,39.4623403 35.6313869,49.9224689 31.4354189,62.7016538 L3.9269386,53.3930664 C10.8704507,33.3591934 26.0358618,15.8753364 45.1443458,7.115448 Z" id="Combined-Shape" fill="#465741"></path>
                <path d="M77.5841652,0.0170898438 L76.7152282,29.016516 C69.6009045,29.1996273 62.863785,30.8991062 56.8150832,33.8037391 C53.134918,25.2924107 49.2457348,16.3948408 45.147307,7.1111221 C55.0150785,2.55736767 64.0985695,0.633300781 77.5841652,0.0170898438 L77.5841652,0.0170898438 Z" id="Combined-Shape" fill="#BC2A3A"></path>
            </g>
        </g>
    </g>
</svg>