<?xml version="1.0" encoding="UTF-8"?>
<svg width="157px" height="155px" viewBox="0 0 157 155" version="1.1" xmlns="http://www.w3.org/2000/svg" xmlns:xlink="http://www.w3.org/1999/xlink">
    <title>Pie</title>
    <g id="Page-1" stroke="none" stroke-width="1" fill="none" fill-rule="evenodd">
        <g id="Artboard" transform="translate(-1366.000000, -884.000000)">
            <g id="Pie" transform="translate(1366.500000, 884.000000)">
                <path d="M94.5812287,153.133789 C129.56947,145.656879 155.107718,114.736883 155.107718,77.5170898 C155.107718,34.7150217 120.399776,0 77.5977082,0 C76.0539256,23.1356777 75.2820343,48.9708726 75.2820343,77.5055847 L94.5812287,153.133789 Z" id="Oval" fill="#E03642"></path>
                <path d="M95.0046906,153.177734 L75.2946076,77.5076904 L4.11466516,52.8536798 C-15.5475868,111.468417 39.0815402,165.670737 95.0046906,153.177734 Z" id="Oval" fill="#FE4746"></path>
                <path d="M75.3513703,77.5540771 C68.0023796,59.7889203 62.435485,46.484599 58.6506867,37.6411133 C55.7403082,30.8407798 51.2460455,20.6655581 45.1678986,7.115448 C26.0594145,15.8753364 10.8940035,33.3591934 3.95049136,53.3930664 L75.3513703,77.5540771 Z" id="Oval" fill="#465741"></path>
                <path d="M77.6077179,0.0170898438 C64.1221222,0.633300781 55.0386313,2.55736767 45.1708597,7.1111221 C56.9341241,33.7571538 66.9736339,57.2220968 75.2893891,77.5059509 L77.6077179,0.0170898438 Z" id="Oval" fill="#BC2A3A"></path>
            </g>
        </g>
    </g>
</svg>