<?xml version="1.0" encoding="UTF-8"?>
<svg width="204px" height="137px" viewBox="0 0 204 137" version="1.1" xmlns="http://www.w3.org/2000/svg" xmlns:xlink="http://www.w3.org/1999/xlink">
    <title>Sankey</title>
    <g id="Page-1" stroke="none" stroke-width="1" fill="none" fill-rule="evenodd">
        <g id="Artboard" transform="translate(-1065.000000, -887.000000)">
            <g id="Sankey" transform="translate(1065.000000, 887.000000)">
                <g id="Data-move" transform="translate(23.000000, 0.000000)" fill="#FE4746" fill-opacity="0.502595061">
                    <path d="M0,0.101476599 C4.73738351,-0.11662236 13.3737078,0.016841182 25.9089729,0.501867224 C44.7118704,1.22940629 44.8328844,17.8299922 54.590332,18.2547969 C61.0952971,18.538 68.8368336,18.5381628 77.8149414,18.2552852 L78.2548828,34.8309688 C74.7662768,34.6610469 67.0277537,34.5975703 55.0393135,34.6405391 C37.0566533,34.7049922 36.4121811,16.7225703 25.2932984,16.5526485 C17.8807099,16.4393672 9.44961043,16.2889766 0,16.1014766 L0,0.101476599 Z" id="Rectangle"></path>
                    <path d="M0,42.1014766 C10.2762898,42.1483516 18.8330213,42.115474 25.6701945,42.0028438 C35.9259542,41.8338985 42.0223895,35.9022578 56.1136285,36.0194453 C65.5077879,36.0975703 72.7145022,36.1730912 77.7337714,36.2460078 L77.4145508,51.9310664 C69.1491109,52.1058711 62.2796011,52.2049922 56.8060215,52.2284297 C48.595652,52.263586 33.7623505,57.8046016 25.8927139,57.7284297 C20.6462894,57.6776485 14.7280021,57.8019974 8.13785198,58.1014766 L0,58.1014766 L0,42.1014766 Z" id="Rectangle"></path>
                    <path d="M85,35.1026718 L91.5253906,35.117331 C100.108398,34.1487765 108.207031,53.210911 116.111328,53.6224158 C124.015625,54.0339206 125.579102,54.0820866 125.679199,54.1737066 C131.668563,59.6558099 131.686467,65.2633153 125.73291,70.9962229 C126.588704,71.1396737 123.526042,71.1091337 116.544922,70.9046029 C108.796069,70.6775793 102.714175,57.9527182 94.6865234,52.8633114 C94.4086914,52.407829 88.2448946,52.0545438 85,52.3303446 L85,35.1026718 Z" id="Rectangle"></path>
                    <polygon id="Rectangle" points="85 18.1014766 172.692383 18.6288203 173.036133 34.1600703 85 35.1014766"></polygon>
                    <rect id="Rectangle" x="130" y="54.1014766" width="44" height="34"></rect>
                    <path d="M0,84.1014766 C14.69511,83.7102006 27.2052251,83.4422969 37.5303453,83.2977657 C53.0180257,83.0809688 78.8262269,71.2082989 88.9244239,71.3290157 C103.683334,71.505448 115.976918,71.6535599 125.805176,71.7733516 L126.080078,87.7381953 C115.178828,87.8449662 102.508906,87.7766068 88.0703125,87.5331172 C77.7203442,87.3585774 54.919208,99.0926875 37.6753758,99.8544063 C26.1794877,100.362219 13.6210291,100.444576 0,100.101477 L0,84.1014766 Z" id="Rectangle"></path>
                    <path d="M0.00341796875,120.025793 C15.2617018,120.695692 30.733056,120.945367 46.4174805,120.774816 C73.5458992,120.479826 110.879422,91.438559 133.758203,90.6251778 C149.010724,90.0829236 162.664973,90.117713 174.720948,90.7295459 L175,103.915292 C160.757346,104.033749 147.476435,104.078314 135.157269,104.048987 C116.67852,104.004997 80.1621094,135.920324 46.1835937,135.669937 C30.1168114,135.551541 14.7222801,135.677338 0,136.047327 L0.00341796875,120.025793 Z" id="Rectangle"></path>
                </g>
                <g id="Nodes" transform="translate(15.000000, 0.101477)">
                    <rect id="Rectangle" fill="#FE4746" x="0" y="0" width="8" height="16"></rect>
                    <rect id="Rectangle" fill="#FE4746" x="0" y="42" width="8" height="16"></rect>
                    <rect id="Rectangle" fill="#E03642" x="85" y="18" width="8" height="34"></rect>
                    <rect id="Rectangle" fill="#E03642" x="133" y="54" width="8" height="34"></rect>
                    <rect id="Rectangle" fill="#465741" x="181" y="18" width="8" height="89"></rect>
                    <rect id="Rectangle" fill="#FE4746" x="0" y="84" width="8" height="16"></rect>
                    <rect id="Rectangle" fill="#FE4746" x="0" y="120" width="8" height="16"></rect>
                </g>
                <text id="A" font-family="Montserrat-Bold, Montserrat" font-size="8" font-weight="bold" fill="#212641">
                    <tspan x="1.436" y="11.1014766">A</tspan>
                </text>
                <text id="B" font-family="Montserrat-Bold, Montserrat" font-size="8" font-weight="bold" fill="#212641">
                    <tspan x="1.44" y="53.1014766">B</tspan>
                </text>
                <text id="C" font-family="Montserrat-Bold, Montserrat" font-size="8" font-weight="bold" fill="#212641">
                    <tspan x="1.568" y="95.1014766">C</tspan>
                </text>
                <text id="D" font-family="Montserrat-Bold, Montserrat" font-size="8" font-weight="bold" fill="#212641">
                    <tspan x="2.196" y="131.101477">D</tspan>
                </text>
            </g>
        </g>
    </g>
</svg>