<?xml version="1.0" encoding="UTF-8"?>
<svg width="169px" height="129px" viewBox="0 0 169 129" version="1.1" xmlns="http://www.w3.org/2000/svg" xmlns:xlink="http://www.w3.org/1999/xlink">
    <title>Stacked area chart</title>
    <g id="Page-1" stroke="none" stroke-width="1" fill="none" fill-rule="evenodd">
        <g id="Artboard" transform="translate(-798.000000, -902.000000)">
            <g id="Stacked-area-chart" transform="translate(798.000000, 902.000000)">
                <g id="Vertical-grid" transform="translate(0.000000, 0.488281)" fill="#293250">
                    <g id="Gridline" transform="translate(168.000000, 0.000000)">
                        <ellipse id="Oval" cx="0.5" cy="0.463235294" rx="1" ry="1"></ellipse>
                        <ellipse id="Oval" cx="0.5" cy="4.63235294" rx="1" ry="1"></ellipse>
                        <ellipse id="Oval" cx="0.5" cy="8.80147059" rx="1" ry="1"></ellipse>
                        <ellipse id="Oval" cx="0.5" cy="12.9705882" rx="1" ry="1"></ellipse>
                        <ellipse id="Oval" cx="0.5" cy="17.1397059" rx="1" ry="1"></ellipse>
                        <ellipse id="Oval" cx="0.5" cy="21.3088235" rx="1" ry="1"></ellipse>
                        <ellipse id="Oval" cx="0.5" cy="25.4779412" rx="1" ry="1"></ellipse>
                        <ellipse id="Oval" cx="0.5" cy="29.6470588" rx="1" ry="1"></ellipse>
                        <ellipse id="Oval" cx="0.5" cy="33.8161765" rx="1" ry="1"></ellipse>
                        <ellipse id="Oval" cx="0.5" cy="37.9852941" rx="1" ry="1"></ellipse>
                        <ellipse id="Oval" cx="0.5" cy="42.1544118" rx="1" ry="1"></ellipse>
                        <ellipse id="Oval" cx="0.5" cy="46.3235294" rx="1" ry="1"></ellipse>
                        <ellipse id="Oval" cx="0.5" cy="50.4926471" rx="1" ry="1"></ellipse>
                        <ellipse id="Oval" cx="0.5" cy="54.6617647" rx="1" ry="1"></ellipse>
                        <ellipse id="Oval" cx="0.5" cy="58.8308824" rx="1" ry="1"></ellipse>
                        <ellipse id="Oval" cx="0.5" cy="63" rx="1" ry="1"></ellipse>
                        <ellipse id="Oval" cx="0.5" cy="67.1691176" rx="1" ry="1"></ellipse>
                        <ellipse id="Oval" cx="0.5" cy="71.3382353" rx="1" ry="1"></ellipse>
                        <ellipse id="Oval" cx="0.5" cy="75.5073529" rx="1" ry="1"></ellipse>
                        <ellipse id="Oval" cx="0.5" cy="79.6764706" rx="1" ry="1"></ellipse>
                        <ellipse id="Oval" cx="0.5" cy="83.8455882" rx="1" ry="1"></ellipse>
                        <ellipse id="Oval" cx="0.5" cy="88.0147059" rx="1" ry="1"></ellipse>
                        <ellipse id="Oval" cx="0.5" cy="92.1838235" rx="1" ry="1"></ellipse>
                        <ellipse id="Oval" cx="0.5" cy="96.3529412" rx="1" ry="1"></ellipse>
                        <ellipse id="Oval" cx="0.5" cy="100.522059" rx="1" ry="1"></ellipse>
                        <ellipse id="Oval" cx="0.5" cy="104.691176" rx="1" ry="1"></ellipse>
                        <ellipse id="Oval" cx="0.5" cy="108.860294" rx="1" ry="1"></ellipse>
                        <ellipse id="Oval" cx="0.5" cy="113.029412" rx="1" ry="1"></ellipse>
                        <ellipse id="Oval" cx="0.5" cy="117.198529" rx="1" ry="1"></ellipse>
                        <ellipse id="Oval" cx="0.5" cy="121.367647" rx="1" ry="1"></ellipse>
                        <ellipse id="Oval" cx="0.5" cy="125.536765" rx="1" ry="1"></ellipse>
                    </g>
                    <g id="Gridline" transform="translate(113.000000, 0.000000)">
                        <ellipse id="Oval" cx="0.5" cy="0.463235294" rx="1" ry="1"></ellipse>
                        <ellipse id="Oval" cx="0.5" cy="4.63235294" rx="1" ry="1"></ellipse>
                        <ellipse id="Oval" cx="0.5" cy="8.80147059" rx="1" ry="1"></ellipse>
                        <ellipse id="Oval" cx="0.5" cy="12.9705882" rx="1" ry="1"></ellipse>
                        <ellipse id="Oval" cx="0.5" cy="17.1397059" rx="1" ry="1"></ellipse>
                        <ellipse id="Oval" cx="0.5" cy="21.3088235" rx="1" ry="1"></ellipse>
                        <ellipse id="Oval" cx="0.5" cy="25.4779412" rx="1" ry="1"></ellipse>
                        <ellipse id="Oval" cx="0.5" cy="29.6470588" rx="1" ry="1"></ellipse>
                        <ellipse id="Oval" cx="0.5" cy="33.8161765" rx="1" ry="1"></ellipse>
                        <ellipse id="Oval" cx="0.5" cy="37.9852941" rx="1" ry="1"></ellipse>
                        <ellipse id="Oval" cx="0.5" cy="42.1544118" rx="1" ry="1"></ellipse>
                        <ellipse id="Oval" cx="0.5" cy="46.3235294" rx="1" ry="1"></ellipse>
                        <ellipse id="Oval" cx="0.5" cy="50.4926471" rx="1" ry="1"></ellipse>
                        <ellipse id="Oval" cx="0.5" cy="54.6617647" rx="1" ry="1"></ellipse>
                        <ellipse id="Oval" cx="0.5" cy="58.8308824" rx="1" ry="1"></ellipse>
                        <ellipse id="Oval" cx="0.5" cy="63" rx="1" ry="1"></ellipse>
                        <ellipse id="Oval" cx="0.5" cy="67.1691176" rx="1" ry="1"></ellipse>
                        <ellipse id="Oval" cx="0.5" cy="71.3382353" rx="1" ry="1"></ellipse>
                        <ellipse id="Oval" cx="0.5" cy="75.5073529" rx="1" ry="1"></ellipse>
                        <ellipse id="Oval" cx="0.5" cy="79.6764706" rx="1" ry="1"></ellipse>
                        <ellipse id="Oval" cx="0.5" cy="83.8455882" rx="1" ry="1"></ellipse>
                        <ellipse id="Oval" cx="0.5" cy="88.0147059" rx="1" ry="1"></ellipse>
                        <ellipse id="Oval" cx="0.5" cy="92.1838235" rx="1" ry="1"></ellipse>
                        <ellipse id="Oval" cx="0.5" cy="96.3529412" rx="1" ry="1"></ellipse>
                        <ellipse id="Oval" cx="0.5" cy="100.522059" rx="1" ry="1"></ellipse>
                        <ellipse id="Oval" cx="0.5" cy="104.691176" rx="1" ry="1"></ellipse>
                        <ellipse id="Oval" cx="0.5" cy="108.860294" rx="1" ry="1"></ellipse>
                        <ellipse id="Oval" cx="0.5" cy="113.029412" rx="1" ry="1"></ellipse>
                        <ellipse id="Oval" cx="0.5" cy="117.198529" rx="1" ry="1"></ellipse>
                        <ellipse id="Oval" cx="0.5" cy="121.367647" rx="1" ry="1"></ellipse>
                        <ellipse id="Oval" cx="0.5" cy="125.536765" rx="1" ry="1"></ellipse>
                    </g>
                    <g id="Gridline" transform="translate(57.000000, 0.000000)">
                        <ellipse id="Oval" cx="0.5" cy="0.463235294" rx="1" ry="1"></ellipse>
                        <ellipse id="Oval" cx="0.5" cy="4.63235294" rx="1" ry="1"></ellipse>
                        <ellipse id="Oval" cx="0.5" cy="8.80147059" rx="1" ry="1"></ellipse>
                        <ellipse id="Oval" cx="0.5" cy="12.9705882" rx="1" ry="1"></ellipse>
                        <ellipse id="Oval" cx="0.5" cy="17.1397059" rx="1" ry="1"></ellipse>
                        <ellipse id="Oval" cx="0.5" cy="21.3088235" rx="1" ry="1"></ellipse>
                        <ellipse id="Oval" cx="0.5" cy="25.4779412" rx="1" ry="1"></ellipse>
                        <ellipse id="Oval" cx="0.5" cy="29.6470588" rx="1" ry="1"></ellipse>
                        <ellipse id="Oval" cx="0.5" cy="33.8161765" rx="1" ry="1"></ellipse>
                        <ellipse id="Oval" cx="0.5" cy="37.9852941" rx="1" ry="1"></ellipse>
                        <ellipse id="Oval" cx="0.5" cy="42.1544118" rx="1" ry="1"></ellipse>
                        <ellipse id="Oval" cx="0.5" cy="46.3235294" rx="1" ry="1"></ellipse>
                        <ellipse id="Oval" cx="0.5" cy="50.4926471" rx="1" ry="1"></ellipse>
                        <ellipse id="Oval" cx="0.5" cy="54.6617647" rx="1" ry="1"></ellipse>
                        <ellipse id="Oval" cx="0.5" cy="58.8308824" rx="1" ry="1"></ellipse>
                        <ellipse id="Oval" cx="0.5" cy="63" rx="1" ry="1"></ellipse>
                        <ellipse id="Oval" cx="0.5" cy="67.1691176" rx="1" ry="1"></ellipse>
                        <ellipse id="Oval" cx="0.5" cy="71.3382353" rx="1" ry="1"></ellipse>
                        <ellipse id="Oval" cx="0.5" cy="75.5073529" rx="1" ry="1"></ellipse>
                        <ellipse id="Oval" cx="0.5" cy="79.6764706" rx="1" ry="1"></ellipse>
                        <ellipse id="Oval" cx="0.5" cy="83.8455882" rx="1" ry="1"></ellipse>
                        <ellipse id="Oval" cx="0.5" cy="88.0147059" rx="1" ry="1"></ellipse>
                        <ellipse id="Oval" cx="0.5" cy="92.1838235" rx="1" ry="1"></ellipse>
                        <ellipse id="Oval" cx="0.5" cy="96.3529412" rx="1" ry="1"></ellipse>
                        <ellipse id="Oval" cx="0.5" cy="100.522059" rx="1" ry="1"></ellipse>
                        <ellipse id="Oval" cx="0.5" cy="104.691176" rx="1" ry="1"></ellipse>
                        <ellipse id="Oval" cx="0.5" cy="108.860294" rx="1" ry="1"></ellipse>
                        <ellipse id="Oval" cx="0.5" cy="113.029412" rx="1" ry="1"></ellipse>
                        <ellipse id="Oval" cx="0.5" cy="117.198529" rx="1" ry="1"></ellipse>
                        <ellipse id="Oval" cx="0.5" cy="121.367647" rx="1" ry="1"></ellipse>
                        <ellipse id="Oval" cx="0.5" cy="125.536765" rx="1" ry="1"></ellipse>
                    </g>
                    <g id="Gridline">
                        <ellipse id="Oval" cx="0.5" cy="0.463235294" rx="1" ry="1"></ellipse>
                        <ellipse id="Oval" cx="0.5" cy="4.63235294" rx="1" ry="1"></ellipse>
                        <ellipse id="Oval" cx="0.5" cy="8.80147059" rx="1" ry="1"></ellipse>
                        <ellipse id="Oval" cx="0.5" cy="12.9705882" rx="1" ry="1"></ellipse>
                        <ellipse id="Oval" cx="0.5" cy="17.1397059" rx="1" ry="1"></ellipse>
                        <ellipse id="Oval" cx="0.5" cy="21.3088235" rx="1" ry="1"></ellipse>
                        <ellipse id="Oval" cx="0.5" cy="25.4779412" rx="1" ry="1"></ellipse>
                        <ellipse id="Oval" cx="0.5" cy="29.6470588" rx="1" ry="1"></ellipse>
                        <ellipse id="Oval" cx="0.5" cy="33.8161765" rx="1" ry="1"></ellipse>
                        <ellipse id="Oval" cx="0.5" cy="37.9852941" rx="1" ry="1"></ellipse>
                        <ellipse id="Oval" cx="0.5" cy="42.1544118" rx="1" ry="1"></ellipse>
                        <ellipse id="Oval" cx="0.5" cy="46.3235294" rx="1" ry="1"></ellipse>
                        <ellipse id="Oval" cx="0.5" cy="50.4926471" rx="1" ry="1"></ellipse>
                        <ellipse id="Oval" cx="0.5" cy="54.6617647" rx="1" ry="1"></ellipse>
                        <ellipse id="Oval" cx="0.5" cy="58.8308824" rx="1" ry="1"></ellipse>
                        <ellipse id="Oval" cx="0.5" cy="63" rx="1" ry="1"></ellipse>
                        <ellipse id="Oval" cx="0.5" cy="67.1691176" rx="1" ry="1"></ellipse>
                        <ellipse id="Oval" cx="0.5" cy="71.3382353" rx="1" ry="1"></ellipse>
                        <ellipse id="Oval" cx="0.5" cy="75.5073529" rx="1" ry="1"></ellipse>
                        <ellipse id="Oval" cx="0.5" cy="79.6764706" rx="1" ry="1"></ellipse>
                        <ellipse id="Oval" cx="0.5" cy="83.8455882" rx="1" ry="1"></ellipse>
                        <ellipse id="Oval" cx="0.5" cy="88.0147059" rx="1" ry="1"></ellipse>
                        <ellipse id="Oval" cx="0.5" cy="92.1838235" rx="1" ry="1"></ellipse>
                        <ellipse id="Oval" cx="0.5" cy="96.3529412" rx="1" ry="1"></ellipse>
                        <ellipse id="Oval" cx="0.5" cy="100.522059" rx="1" ry="1"></ellipse>
                        <ellipse id="Oval" cx="0.5" cy="104.691176" rx="1" ry="1"></ellipse>
                        <ellipse id="Oval" cx="0.5" cy="108.860294" rx="1" ry="1"></ellipse>
                        <ellipse id="Oval" cx="0.5" cy="113.029412" rx="1" ry="1"></ellipse>
                        <ellipse id="Oval" cx="0.5" cy="117.198529" rx="1" ry="1"></ellipse>
                        <ellipse id="Oval" cx="0.5" cy="121.367647" rx="1" ry="1"></ellipse>
                        <ellipse id="Oval" cx="0.5" cy="125.536765" rx="1" ry="1"></ellipse>
                    </g>
                </g>
                <g id="Data" transform="translate(0.000000, 17.000000)">
                    <path d="M1.8189894e-12,31.5824125 C7.71085397,31.7216656 12.9624217,30.9829875 15.7547031,29.3663781 C24.1278865,24.5186695 27.1388398,14.299584 29.4501466,14.1121351 C37.3314109,13.472958 34.6175863,26.8795932 41.4215025,26.4626766 C54.0571205,25.6884167 55.020566,2.3095908 59.9066137,3.13790893 C66.8315867,4.31188045 67.9332892,21.2352292 71.5186843,21.4763539 C77.4408644,21.8746319 77.7487085,13.0840678 82.160604,14.2838066 C92.1809514,17.0086671 95.9131152,28.4177702 103.619666,28.1185712 C111.326216,27.8193723 117.673579,11.5849045 120.416055,11.8941387 C124.016435,12.3001079 128.613399,23.5969094 130.729233,23.8101059 C134.488315,24.1888802 137.686669,21.3762939 141.47725,21.866784 C147.720675,22.6746649 146.395521,25.6317863 149.534244,25.2923671 C154.222592,24.7853728 160.711177,16.5173441 169,0.48828125 L168.84322,33.1235325 C162.889654,39.015272 158.775958,42.6550357 156.50213,44.0428238 C153.497498,45.8766443 150.343719,44.1653877 148.83416,45.2111713 C145.287646,47.6681061 143.366363,53.2954848 141.465194,53.474949 C135.496197,54.0384026 131.880962,36.5533506 129.233416,36.8375238 C122.873916,37.5201178 123.170686,38.0986778 120.284237,38.368834 C117.013663,38.6749421 114.180425,36.2990196 112.199111,36.6246511 C105.10774,37.7901267 103.799982,45.713342 100.389312,45.7811208 C96.0204104,45.8679421 91.1218512,38.0280759 88.6164877,37.8479334 C79.189065,37.1700761 74.871371,46.9579615 73.3054658,47.1407594 C70.9653824,47.413932 68.6904582,48.1122037 67.2048487,48.2443622 C64.6733635,48.469561 63.2382223,50.6012457 61.5286223,50.6232394 C56.8749629,50.6839077 53.8544693,33.6565436 51.1278336,33.7307593 C47.2206879,33.8371071 43.5401821,38.8019909 40.9151272,38.8200849 C37.0505153,38.8467229 32.901516,29.2351746 29.8849863,29.3428346 C23.1850053,29.5819571 21.8051882,39.7191178 16.3470819,40.1473512 C10.2871891,40.6227996 4.83816182,39.6892334 1.8189894e-12,37.3466525 L1.8189894e-12,31.5824125 Z" id="Rectangle" fill="#F05440"></path>
                    <path d="M1.8189894e-12,43.2286656 C3.53828137,48.1057559 6.70485918,49.7419627 9.49973341,48.1372859 C17.8806917,43.3253595 21.1599314,40.6697595 23.4733843,40.4836942 C31.3619668,39.8492351 33.204014,47.2521568 40.014248,46.8383175 C46.1123839,46.4677506 47.0865445,41.8964658 49.8502694,44.131322 C52.8184271,46.5314905 59.05164,67.5300395 61.5841458,67.9558038 C68.515549,69.12111 67.9802784,54.0149719 71.5690028,54.2543168 C77.496682,54.649655 75.6325869,57.2090511 81.3173319,56.6166086 C87.0261825,56.0216538 84.1508397,48.9932028 91.864546,48.6962123 C94.1166526,48.6095025 96.2604254,55.8570918 100.698944,56.2027693 C105.137463,56.5484468 107.523924,43.8671381 111.158466,45.4361328 C116.008299,47.5297567 118.684769,47.7277482 119.795757,47.8519803 C120.943743,47.9803494 129.356992,39.1003754 130.696155,43.0748148 C133.560852,51.5768199 137.768541,69.8737133 144.582918,70.4709727 C150.023246,70.9478009 155.303339,61.5026157 162.073916,50.7985157 C163.39183,48.7149281 165.700525,46.556797 169,44.3241224 L169,32.7979692 C163.040906,38.6462202 158.923389,42.259118 156.64745,43.6366624 C153.640029,45.4569471 150.483321,43.7583216 148.972361,44.796386 C145.422553,47.2351856 143.499486,52.8210273 141.596552,52.9991667 C135.622012,53.5584614 132.003421,36.2024709 129.353416,36.4845465 C122.988011,37.1621022 123.285056,37.7363917 120.395927,38.0045537 C117.122316,38.3084024 114.286447,35.9500172 112.303293,36.2732451 C105.205338,37.430118 103.896366,45.2948502 100.482529,45.3621286 C96.1095704,45.4483091 91.706872,37.1103057 89.1991822,36.9314929 C79.7630056,36.258639 75.4413024,45.9742776 73.8739432,46.1557262 C71.5316869,46.4268825 69.2546503,47.12 67.7676613,47.2511831 C65.2338255,47.4747196 63.7973517,49.5906697 62.0861642,49.6125011 C57.4281836,49.6727216 54.4048854,32.7710407 51.6757179,32.8447087 C47.7649442,32.9502715 44.0810208,37.8785083 41.4535284,37.8964687 C37.585328,37.92291 33.4324762,28.382307 30.4131455,28.4891724 C23.7069432,28.7265298 21.8042132,38.7438654 16.8626704,39.2139381 C10.926816,39.7785964 5.30592589,39.0577046 1.8189894e-12,37.0512629 L1.8189894e-12,43.2286656 Z" id="Rectangle" fill="#912C2E"></path>
                    <path d="M1.8189894e-12,43.2683767 C3.53828137,48.1393784 6.70485918,49.7735425 9.49973341,48.170869 C17.8806917,43.3649498 21.1599314,40.7126652 23.4733843,40.5268321 C31.3619668,39.893165 33.204014,47.2868449 40.014248,46.8735223 C46.1123839,46.5034179 47.0865445,41.93784 49.8502694,44.1699062 C52.8184271,46.5670783 59.05164,67.5394126 61.5841458,67.9646454 C68.515549,69.1284968 67.9802784,54.0412173 71.5690028,54.2802634 C77.496682,54.675108 75.6325869,57.231309 81.3173319,56.6396061 C87.0261825,56.045394 84.1508397,49.0257174 91.864546,48.7290977 C94.1166526,48.6424961 96.2604254,55.8810375 100.698944,56.2262835 C105.137463,56.5715294 107.523924,43.9060521 111.158466,45.4730881 C116.008299,47.5640982 118.684769,47.7618426 119.795757,47.8859196 C120.943743,48.0141284 129.356992,39.1452402 130.696155,43.1147179 C133.560852,51.6061091 137.768541,69.8801605 144.582918,70.4766743 C150.023246,70.9529073 155.303339,61.5195135 162.073916,50.8287765 C163.39183,48.7477901 165.700525,46.5923532 169,44.3624659 L169,84.143551 C165.509152,85.3611226 162.984042,86.7706337 161.424671,88.3720843 C157.508258,92.3941791 153.811299,99.5369675 149.688381,99.4882812 C141.249,99.3878612 133.687274,69.4091517 131.03727,69.6908751 C124.671865,70.3675849 124.058892,85.9932912 119.903563,85.8172644 C115.748234,85.6412376 112.062763,75.9325863 110.079609,76.2554106 C102.981653,77.4108393 105.735219,82.3560523 100.128542,82.2821405 C94.5218648,82.2082287 94.8163291,76.7481253 92.3086393,76.5695358 C82.8724627,75.8975219 84.9609881,81.3105892 80.627861,80.7455529 C76.294734,80.1805166 76.1563571,72.4596503 71.6470409,72.1863711 C67.1377247,71.913092 66.7781057,92.9974074 60.9702995,92.9886547 C56.3087555,92.9816295 53.726431,62.9629556 47.8470228,62.0127999 C41.9676146,61.0626442 33.6882738,76.0721436 31.0607815,76.0900816 C27.1925811,76.1164899 22.3727849,60.0825859 19.3534542,60.1893178 C12.6472518,60.426379 15.7730562,62.9352036 10.3098818,63.3597453 C4.24436204,63.8310952 0.807734786,62.7305225 1.8189894e-12,60.0580271 L1.8189894e-12,43.2683767 Z" id="Rectangle" fill="#465741"></path>
                    <path d="M1.8189894e-12,111.488281 L168.738532,111.488281 L169,83.7670284 C165.509152,84.9943679 162.984042,86.4151866 161.424671,88.0294847 C157.508258,92.0838462 153.811299,99.2839368 149.688381,99.2346078 C141.249,99.1336343 133.687274,68.9144241 131.03727,69.1984076 C124.671865,69.8805463 124.058892,85.6316079 119.903563,85.454169 C115.748234,85.27673 112.062763,75.4901922 110.079609,75.8156064 C102.981653,76.9803043 105.735219,81.9651897 100.128542,81.8906849 C94.5218648,81.8161802 94.8163291,76.3122738 92.3086393,76.1322516 C82.8724627,75.4548465 84.9609881,80.9113395 80.627861,80.3417703 C76.294734,79.772201 76.1563571,71.989395 71.6470409,71.7139235 C67.1377247,71.438452 66.7781057,92.6919139 60.9702995,92.6830909 C56.3087555,92.6760094 53.726431,62.4165142 47.8470228,61.458736 C41.9676146,60.5009577 33.6882738,75.6308691 31.0607815,75.648951 C27.1925811,75.6755712 22.3727849,59.5130371 19.3534542,59.6206252 C12.6472518,59.8595881 15.7730562,62.3885395 10.3098818,62.8164871 C4.24436204,63.2916183 0.807734786,62.1822164 1.8189894e-12,59.4882812 L1.8189894e-12,111.488281 Z" id="Rectangle" fill="#D5443D"></path>
                </g>
            </g>
        </g>
    </g>
</svg>