<?xml version="1.0" encoding="UTF-8"?>
<svg width="166px" height="137px" viewBox="0 0 166 137" version="1.1" xmlns="http://www.w3.org/2000/svg" xmlns:xlink="http://www.w3.org/1999/xlink">
    <title>Stream graph</title>
    <g id="Page-1" stroke="none" stroke-width="1" fill="none" fill-rule="evenodd">
        <g id="Artboard" transform="translate(-499.000000, -345.000000)">
            <g id="Stream-graph" transform="translate(499.000000, 345.000000)">
                <g id="Vertical-grid" transform="translate(0.000000, 0.488281)" fill="#293250">
                    <g id="Gridline" transform="translate(165.000000, 0.000000)">
                        <circle id="Oval" cx="0.5" cy="0.5" r="1"></circle>
                        <circle id="Oval" cx="0.5" cy="5" r="1"></circle>
                        <circle id="Oval" cx="0.5" cy="9.5" r="1"></circle>
                        <circle id="Oval" cx="0.5" cy="14" r="1"></circle>
                        <circle id="Oval" cx="0.5" cy="18.5" r="1"></circle>
                        <circle id="Oval" cx="0.5" cy="23" r="1"></circle>
                        <circle id="Oval" cx="0.5" cy="27.5" r="1"></circle>
                        <circle id="Oval" cx="0.5" cy="32" r="1"></circle>
                        <circle id="Oval" cx="0.5" cy="36.5" r="1"></circle>
                        <circle id="Oval" cx="0.5" cy="41" r="1"></circle>
                        <circle id="Oval" cx="0.5" cy="45.5" r="1"></circle>
                        <circle id="Oval" cx="0.5" cy="50" r="1"></circle>
                        <circle id="Oval" cx="0.5" cy="54.5" r="1"></circle>
                        <circle id="Oval" cx="0.5" cy="59" r="1"></circle>
                        <circle id="Oval" cx="0.5" cy="63.5" r="1"></circle>
                        <circle id="Oval" cx="0.5" cy="68" r="1"></circle>
                        <circle id="Oval" cx="0.5" cy="72.5" r="1"></circle>
                        <circle id="Oval" cx="0.5" cy="77" r="1"></circle>
                        <circle id="Oval" cx="0.5" cy="81.5" r="1"></circle>
                        <circle id="Oval" cx="0.5" cy="86" r="1"></circle>
                        <circle id="Oval" cx="0.5" cy="90.5" r="1"></circle>
                        <circle id="Oval" cx="0.5" cy="95" r="1"></circle>
                        <circle id="Oval" cx="0.5" cy="99.5" r="1"></circle>
                        <circle id="Oval" cx="0.5" cy="104" r="1"></circle>
                        <circle id="Oval" cx="0.5" cy="108.5" r="1"></circle>
                        <circle id="Oval" cx="0.5" cy="113" r="1"></circle>
                        <circle id="Oval" cx="0.5" cy="117.5" r="1"></circle>
                        <circle id="Oval" cx="0.5" cy="122" r="1"></circle>
                        <circle id="Oval" cx="0.5" cy="126.5" r="1"></circle>
                        <circle id="Oval" cx="0.5" cy="131" r="1"></circle>
                        <circle id="Oval" cx="0.5" cy="135.5" r="1"></circle>
                    </g>
                    <g id="Gridline" transform="translate(111.000000, 0.000000)">
                        <circle id="Oval" cx="0.5" cy="0.5" r="1"></circle>
                        <circle id="Oval" cx="0.5" cy="5" r="1"></circle>
                        <circle id="Oval" cx="0.5" cy="9.5" r="1"></circle>
                        <circle id="Oval" cx="0.5" cy="14" r="1"></circle>
                        <circle id="Oval" cx="0.5" cy="18.5" r="1"></circle>
                        <circle id="Oval" cx="0.5" cy="23" r="1"></circle>
                        <circle id="Oval" cx="0.5" cy="27.5" r="1"></circle>
                        <circle id="Oval" cx="0.5" cy="32" r="1"></circle>
                        <circle id="Oval" cx="0.5" cy="36.5" r="1"></circle>
                        <circle id="Oval" cx="0.5" cy="41" r="1"></circle>
                        <circle id="Oval" cx="0.5" cy="45.5" r="1"></circle>
                        <circle id="Oval" cx="0.5" cy="50" r="1"></circle>
                        <circle id="Oval" cx="0.5" cy="54.5" r="1"></circle>
                        <circle id="Oval" cx="0.5" cy="59" r="1"></circle>
                        <circle id="Oval" cx="0.5" cy="63.5" r="1"></circle>
                        <circle id="Oval" cx="0.5" cy="68" r="1"></circle>
                        <circle id="Oval" cx="0.5" cy="72.5" r="1"></circle>
                        <circle id="Oval" cx="0.5" cy="77" r="1"></circle>
                        <circle id="Oval" cx="0.5" cy="81.5" r="1"></circle>
                        <circle id="Oval" cx="0.5" cy="86" r="1"></circle>
                        <circle id="Oval" cx="0.5" cy="90.5" r="1"></circle>
                        <circle id="Oval" cx="0.5" cy="95" r="1"></circle>
                        <circle id="Oval" cx="0.5" cy="99.5" r="1"></circle>
                        <circle id="Oval" cx="0.5" cy="104" r="1"></circle>
                        <circle id="Oval" cx="0.5" cy="108.5" r="1"></circle>
                        <circle id="Oval" cx="0.5" cy="113" r="1"></circle>
                        <circle id="Oval" cx="0.5" cy="117.5" r="1"></circle>
                        <circle id="Oval" cx="0.5" cy="122" r="1"></circle>
                        <circle id="Oval" cx="0.5" cy="126.5" r="1"></circle>
                        <circle id="Oval" cx="0.5" cy="131" r="1"></circle>
                        <circle id="Oval" cx="0.5" cy="135.5" r="1"></circle>
                    </g>
                    <g id="Gridline" transform="translate(56.000000, 0.000000)">
                        <circle id="Oval" cx="0.5" cy="0.5" r="1"></circle>
                        <circle id="Oval" cx="0.5" cy="5" r="1"></circle>
                        <circle id="Oval" cx="0.5" cy="9.5" r="1"></circle>
                        <circle id="Oval" cx="0.5" cy="14" r="1"></circle>
                        <circle id="Oval" cx="0.5" cy="18.5" r="1"></circle>
                        <circle id="Oval" cx="0.5" cy="23" r="1"></circle>
                        <circle id="Oval" cx="0.5" cy="27.5" r="1"></circle>
                        <circle id="Oval" cx="0.5" cy="32" r="1"></circle>
                        <circle id="Oval" cx="0.5" cy="36.5" r="1"></circle>
                        <circle id="Oval" cx="0.5" cy="41" r="1"></circle>
                        <circle id="Oval" cx="0.5" cy="45.5" r="1"></circle>
                        <circle id="Oval" cx="0.5" cy="50" r="1"></circle>
                        <circle id="Oval" cx="0.5" cy="54.5" r="1"></circle>
                        <circle id="Oval" cx="0.5" cy="59" r="1"></circle>
                        <circle id="Oval" cx="0.5" cy="63.5" r="1"></circle>
                        <circle id="Oval" cx="0.5" cy="68" r="1"></circle>
                        <circle id="Oval" cx="0.5" cy="72.5" r="1"></circle>
                        <circle id="Oval" cx="0.5" cy="77" r="1"></circle>
                        <circle id="Oval" cx="0.5" cy="81.5" r="1"></circle>
                        <circle id="Oval" cx="0.5" cy="86" r="1"></circle>
                        <circle id="Oval" cx="0.5" cy="90.5" r="1"></circle>
                        <circle id="Oval" cx="0.5" cy="95" r="1"></circle>
                        <circle id="Oval" cx="0.5" cy="99.5" r="1"></circle>
                        <circle id="Oval" cx="0.5" cy="104" r="1"></circle>
                        <circle id="Oval" cx="0.5" cy="108.5" r="1"></circle>
                        <circle id="Oval" cx="0.5" cy="113" r="1"></circle>
                        <circle id="Oval" cx="0.5" cy="117.5" r="1"></circle>
                        <circle id="Oval" cx="0.5" cy="122" r="1"></circle>
                        <circle id="Oval" cx="0.5" cy="126.5" r="1"></circle>
                        <circle id="Oval" cx="0.5" cy="131" r="1"></circle>
                        <circle id="Oval" cx="0.5" cy="135.5" r="1"></circle>
                    </g>
                    <g id="Gridline">
                        <circle id="Oval" cx="0.5" cy="0.5" r="1"></circle>
                        <circle id="Oval" cx="0.5" cy="5" r="1"></circle>
                        <circle id="Oval" cx="0.5" cy="9.5" r="1"></circle>
                        <circle id="Oval" cx="0.5" cy="14" r="1"></circle>
                        <circle id="Oval" cx="0.5" cy="18.5" r="1"></circle>
                        <circle id="Oval" cx="0.5" cy="23" r="1"></circle>
                        <circle id="Oval" cx="0.5" cy="27.5" r="1"></circle>
                        <circle id="Oval" cx="0.5" cy="32" r="1"></circle>
                        <circle id="Oval" cx="0.5" cy="36.5" r="1"></circle>
                        <circle id="Oval" cx="0.5" cy="41" r="1"></circle>
                        <circle id="Oval" cx="0.5" cy="45.5" r="1"></circle>
                        <circle id="Oval" cx="0.5" cy="50" r="1"></circle>
                        <circle id="Oval" cx="0.5" cy="54.5" r="1"></circle>
                        <circle id="Oval" cx="0.5" cy="59" r="1"></circle>
                        <circle id="Oval" cx="0.5" cy="63.5" r="1"></circle>
                        <circle id="Oval" cx="0.5" cy="68" r="1"></circle>
                        <circle id="Oval" cx="0.5" cy="72.5" r="1"></circle>
                        <circle id="Oval" cx="0.5" cy="77" r="1"></circle>
                        <circle id="Oval" cx="0.5" cy="81.5" r="1"></circle>
                        <circle id="Oval" cx="0.5" cy="86" r="1"></circle>
                        <circle id="Oval" cx="0.5" cy="90.5" r="1"></circle>
                        <circle id="Oval" cx="0.5" cy="95" r="1"></circle>
                        <circle id="Oval" cx="0.5" cy="99.5" r="1"></circle>
                        <circle id="Oval" cx="0.5" cy="104" r="1"></circle>
                        <circle id="Oval" cx="0.5" cy="108.5" r="1"></circle>
                        <circle id="Oval" cx="0.5" cy="113" r="1"></circle>
                        <circle id="Oval" cx="0.5" cy="117.5" r="1"></circle>
                        <circle id="Oval" cx="0.5" cy="122" r="1"></circle>
                        <circle id="Oval" cx="0.5" cy="126.5" r="1"></circle>
                        <circle id="Oval" cx="0.5" cy="131" r="1"></circle>
                        <circle id="Oval" cx="0.5" cy="135.5" r="1"></circle>
                    </g>
                </g>
                <g id="Data" class="StreamChart" transform="translate(0.000000, 32.000000)">
                    <path d="M1.8189894e-12,25.7155953 C7.5739749,25.8285742 12.7323195,25.2292693 15.4750339,23.9176806 C23.6995808,19.984634 26.6570853,11.6936778 28.9273629,11.5415966 C36.6687231,11.023019 34.0030729,21.9001004 40.6862096,21.5618473 C53.0975266,20.9336742 54.0438696,1.96594748 58.8431826,2.63797918 C65.6452272,3.59044664 66.7273728,17.3207107 70.2491218,17.5163402 C76.0661745,17.8394714 76.3685539,10.7075043 80.7021318,11.6808773 C90.5446031,13.8916132 94.2105155,23.1480553 101.780263,22.905309 C109.350011,22.6625626 115.584699,9.49120202 118.278492,9.74209014 C121.814959,10.0714613 126.330321,19.2367909 128.408596,19.4097617 C132.100948,19.7170691 135.242527,17.4351594 138.96582,17.8331043 C145.098414,18.4885548 143.796784,20.8877287 146.87979,20.6123509 C151.484913,20.2010159 157.858316,13.4929926 166,0.48828125 L165.846003,26.9659379 C159.998122,31.7460284 155.957449,34.6990443 153.723986,35.8249856 C150.772691,37.3128023 147.674896,35.9244242 146.192134,36.7728901 C142.708575,38.7662523 140.821398,43.3318615 138.953977,43.4774645 C133.090939,43.9346061 129.53988,29.7486205 126.939332,29.9791761 C120.692723,30.5329789 120.984224,31.0023766 118.149014,31.2215599 C114.936497,31.4699118 112.153553,29.5422765 110.20741,29.8064681 C103.241922,30.7520426 101.957379,37.1803117 98.6072536,37.235302 C94.315906,37.3057419 89.5043036,30.9450958 87.043414,30.7989425 C77.7833419,30.2489827 73.5422934,38.1900973 72.0041854,38.3384051 C69.7056419,38.5600356 67.471101,39.1265579 66.0118632,39.2337809 C63.5253156,39.4164894 62.1156503,41.1459694 60.4363982,41.1638133 C55.8653481,41.2130348 52.8984728,27.3983809 50.2202389,27.4585936 C46.3824508,27.5448758 42.7672794,31.5729891 40.1888232,31.5876691 C36.3928138,31.609281 32.3174654,23.8112325 29.3544836,23.8985792 C22.7734371,24.0925843 21.4181138,32.3170732 16.056897,32.6645078 C10.1045763,33.050249 4.75227729,32.2928273 1.8189894e-12,30.3922429 L1.8189894e-12,25.7155953 Z" id="Rectangle" fill="#F05440"></path>
                    <path d="M1.8189894e-12,35.4209733 C3.47547164,39.3690941 6.58583801,40.6936424 9.33109909,39.3946184 C17.563283,35.4992493 20.7843113,33.349478 23.056697,33.1988537 C30.8052455,32.6852439 32.6145936,38.6780853 39.3039359,38.3430725 C45.2938209,38.0430897 46.2506887,34.3425259 48.9653534,36.1516952 C51.8808219,38.0946888 58.003386,55.0935141 60.4909361,55.4381805 C67.2992967,56.3815236 66.7735279,44.1527451 70.2985471,44.3465005 C76.1210012,44.6665362 74.2899966,46.7384283 79.8738289,46.2588319 C85.481339,45.7772019 82.6570379,40.0875035 90.2338145,39.8470826 C92.4459428,39.7768889 94.5516604,45.6439851 98.9113889,45.9238192 C103.271117,46.2036534 105.615216,35.9378321 109.185239,37.2079706 C113.948981,38.902809 116.577939,39.0630878 117.669206,39.1636566 C118.796813,39.2675745 127.060714,32.0790241 128.376104,35.2964274 C131.189949,42.179003 135.322945,56.9907738 142.016357,57.4742696 C147.360111,57.8602734 152.546475,50.2141711 159.196864,41.5489472 C160.491383,39.8622335 162.759095,38.115175 166,36.3077717 L166,26.9770762 C160.146689,31.7113747 156.102264,34.6361014 153.866726,35.7512565 C150.912691,37.2248203 147.81202,35.8497425 146.327881,36.6900804 C142.841087,38.6643467 140.952158,43.1862185 139.083003,43.3304266 C133.214521,43.783189 129.660165,29.7331015 127.057202,29.9614484 C120.804792,30.5099458 121.096564,30.9748469 118.258721,31.1919304 C115.043222,31.4379032 112.257694,29.5287342 110.309744,29.7903948 C103.337787,30.726911 102.052052,37.0935989 98.6988156,37.1480625 C94.4034833,37.2178276 90.0789394,30.4680153 87.6157647,30.3232621 C78.3470942,29.7785709 74.1021077,37.6436116 72.5625714,37.7904986 C70.2618936,38.010006 68.0252778,38.5711012 66.564685,38.677297 C64.0758286,38.8582551 62.6648543,40.5711672 60.984043,40.5888402 C56.4087484,40.6375901 53.4391182,26.955277 50.7583974,27.014913 C46.9170457,27.1003686 43.2985175,31.0898936 40.717667,31.104433 C36.9181329,31.1258379 32.8390003,23.4024926 29.8732672,23.4890026 C23.2861099,23.6811491 21.4171562,31.7904208 16.5633331,32.1709558 C10.7328489,32.6280601 5.21173786,32.0444811 1.8189894e-12,30.4202188 L1.8189894e-12,35.4209733 Z" id="Rectangle" fill="#912C2E"></path>
                    <path d="M1.8189894e-12,35.7500538 C3.47547164,39.7129027 6.58583801,41.0423921 9.33109909,39.7385221 C17.563283,35.8286218 20.7843113,33.6708309 23.056697,33.5196447 C30.8052455,33.0041189 32.6145936,39.0193161 39.3039359,38.6830536 C45.2938209,38.3819518 46.2506887,34.6675833 48.9653534,36.4835016 C51.8808219,38.4337433 58.003386,55.4959813 60.4909361,55.8419335 C67.2992967,56.7887956 66.7735279,44.5143987 70.2985471,44.7088769 C76.1210012,45.0301064 74.2899966,47.1097276 79.8738289,46.6283421 C85.481339,46.1449154 82.6570379,40.433992 90.2338145,40.1926743 C92.4459428,40.1222187 94.5516604,46.0112016 98.9113889,46.2920797 C103.271117,46.5729577 105.615216,36.2688406 109.185239,37.5437173 C113.948981,39.2448781 116.577939,39.4057549 117.669206,39.5066989 C118.796813,39.6110044 127.060714,32.3956377 128.376104,35.6250433 C131.189949,42.5332937 135.322945,57.4003186 142.016357,57.885618 C147.360111,58.2730618 152.546475,50.5984363 159.196864,41.9008876 C160.491383,40.2078817 162.759095,38.4543059 166,36.6401603 L166,69.0044329 C162.57112,69.9949996 160.090835,71.1417206 158.559144,72.4445956 C154.712254,75.7168083 151.08092,81.5278904 147.03119,81.4882812 C138.741622,81.4065835 131.314127,57.017125 128.711164,57.2463237 C122.458755,57.7968673 121.856663,70.5093063 117.775097,70.366098 C113.693531,70.2228898 110.073483,62.324326 108.125533,62.5869628 C101.153577,63.5269725 103.858262,67.5501967 98.351112,67.490065 C92.8439618,67.4299334 93.133199,62.9878154 90.6700244,62.8425222 C81.4013539,62.295799 83.4528049,66.6996504 79.1965972,66.2399599 C74.9403896,65.7802693 74.8044691,59.4988866 70.3751999,59.2765578 C65.9459308,59.0542289 65.5926956,76.2075703 59.8879865,76.2004495 C55.3091918,76.194734 52.7727074,51.7727621 46.9976674,50.9997541 C41.2226274,50.226746 33.0902571,62.4378642 30.5094067,62.4524578 C26.7098725,62.4739425 21.9756348,49.4294105 19.0099017,49.5162432 C12.4227444,49.7091065 15.4930611,51.7501842 10.1268661,52.0955741 C4.16901833,52.4790451 0.793396298,51.5836639 1.8189894e-12,49.4094304 L1.8189894e-12,35.7500538 Z" id="Rectangle" fill="#465741"></path>
                    <path d="M1.8189894e-12,54.8012407 C0.760314704,57.1516873 3.68313188,58.1656608 8.76845152,57.8431612 C15.5146908,57.4153298 17.0338543,57.6964293 19.30624,57.5464267 C27.0547885,57.0349368 25.1942836,68.0043531 30.9716943,68.3780187 C36.749105,68.7516843 36.3563581,59.5482067 45.1738042,59.5497767 C53.9912503,59.5513467 55.3694207,86.655447 58.5303622,86.6028512 C66.0453384,86.4778074 67.307727,64.9555247 70.8327462,65.1484804 C76.6552003,65.4671952 76.128545,71.9927139 87.1202872,73.3337978 C91.3346123,73.8479805 94.3668665,82.265412 98.5763291,83.2068905 C102.146656,84.0054213 106.106376,74.9365835 108.594143,75.1283347 C113.330023,75.4933651 113.539436,79.8564604 117.337307,79.9914824 C121.135178,80.1265044 127.087582,62.4334189 128.402972,65.6375427 C131.216817,72.4917112 138.386688,88.9693737 145.080099,89.4508738 C150.423854,89.8352844 149.012674,87.3228528 158.491974,78.8492903 C159.896486,77.5937949 162.313552,76.9192081 165.743174,76.82553 L166,68.929882 C162.57112,69.912694 160.090835,71.0504376 158.559144,72.343113 C154.712254,75.5897088 151.08092,81.3552981 147.03119,81.3157972 C138.741622,81.234941 131.314127,57.0364181 128.711164,57.2638225 C122.458755,57.8100561 121.856663,70.4229743 117.775097,70.2808872 C113.693531,70.1388 110.073483,62.3020711 108.125533,62.5626518 C101.153577,63.4953026 103.858262,67.4870304 98.351112,67.4273695 C92.8439618,67.3677086 93.133199,62.9603663 90.6700244,62.8162105 C81.4013539,62.2737674 83.4528049,66.6431428 79.1965972,66.187051 C74.9403896,65.7309591 74.8044691,59.4987509 70.3751999,59.2781626 C65.9459308,59.0575743 65.5926956,76.0766288 59.8879865,76.0695637 C55.3091918,76.063893 52.7727074,51.8331113 46.9976674,51.0661548 C41.2226274,50.2991984 33.0902571,62.4147204 30.5094067,62.4291998 C26.7098725,62.4505163 21.9756348,49.5081049 19.0099017,49.5942578 C12.4227444,49.7856113 15.4930611,51.8107101 10.1268661,52.1533961 C4.16901833,52.5338651 0.793396298,51.6454935 1.8189894e-12,49.4882812 L1.8189894e-12,54.8012407 Z" id="Rectangle" fill="#D5443D"></path>
                </g>
            </g>
        </g>
    </g>
</svg>