<?xml version="1.0" encoding="UTF-8"?>
<svg width="157px" height="155px" viewBox="0 0 157 155" version="1.1" xmlns="http://www.w3.org/2000/svg" xmlns:xlink="http://www.w3.org/1999/xlink">
    <title>Sunburst</title>
    <defs>
        <path d="M91.5539783,125.101274 L98.9436962,152.060991 C97.8409968,152.365348 96.7277417,152.646031 95.6044721,152.902466 L94.5576759,153.133789 L87.6463526,126.050754 C88.9688793,125.78672 90.2721975,125.469451 91.5539783,125.101274 Z M94.5890462,124.120621 L103.720659,150.572647 C102.47153,151.00724 101.206952,151.410759 99.9277845,151.782286 L92.5337006,124.808673 C93.2255023,124.594112 93.9107428,124.364636 94.5890462,124.120621 Z M97.6790218,122.888162 L108.659469,148.659277 C107.354276,149.21794 106.029644,149.741653 104.686662,150.229255 L95.5493193,123.763704 C96.2675092,123.488124 96.9775633,123.196123 97.6790218,122.888162 Z M101.156522,121.193895 L114.144665,146.047202 C112.659915,146.828571 111.145408,147.56277 109.602983,148.247841 L98.616712,122.464627 C99.4771501,122.064998 100.324046,121.641128 101.156522,121.193895 Z M104.461375,119.247821 L119.368898,143.027018 C117.9532,143.922277 116.505302,144.772391 115.027061,145.57538 L102.033628,120.711049 C102.857979,120.246187 103.667523,119.75815 104.461375,119.247821 Z M108.153247,116.626356 L125.197272,138.947635 C123.585889,140.191585 121.922635,141.372496 120.210885,142.486774 L105.297835,118.697962 C106.27517,118.041127 107.227548,117.350017 108.153247,116.626356 Z M111.022697,114.201282 L129.764818,135.127837 C128.540566,136.235666 127.279902,137.304204 125.984636,138.331522 L108.935201,116.00216 C109.64796,115.421245 110.344068,114.820677 111.022697,114.201282 Z M114.296404,110.918178 L134.935391,129.97903 C133.519942,131.529914 132.041286,133.021846 130.503147,134.450859 L111.755222,113.518934 C112.633876,112.683646 113.48157,111.816094 114.296404,110.918178 Z M117.239312,107.352381 L139.58399,124.371727 C138.32348,126.048433 136.995873,127.671102 135.604859,129.235806 L114.96087,110.170866 C115.754071,109.260332 116.514176,108.320212 117.239312,107.352381 Z M120.04673,103.17539 L144.029077,117.772128 C142.831802,119.765495 141.547198,121.699132 140.180218,123.567763 L117.831505,106.544985 C118.614447,105.454408 119.353708,104.330356 120.04673,103.17539 Z M121.891514,99.8081377 L146.847926,112.646469 C146.121592,114.095159 145.351293,115.517263 144.538679,116.911023 L120.553047,102.31169 C121.022513,101.491747 121.468962,100.656937 121.891514,99.8081377 Z M123.429603,96.3962448 L149.366451,107.082639 C148.718503,108.679719 148.019233,110.249613 147.270582,111.790249 L122.307923,98.950795 C122.705203,98.1120862 123.07937,97.2602953 123.429603,96.3962448 Z M124.547601,93.3499644 L151.141719,102.250321 C150.706933,103.567808 150.238155,104.869252 149.736376,106.153596 L123.79598,95.4649732 C124.062137,94.7674737 124.312817,94.0623308 124.547601,93.3499644 Z M126.015962,87.8189985 L153.467067,93.5297899 C152.924206,96.1721853 152.249217,98.7642141 151.449029,101.298491 L124.85084,92.3970324 C125.310234,90.9002782 125.699872,89.3730027 126.015962,87.8189985 Z M126.831982,82.0869732 L154.786042,84.4499506 C154.54879,87.1939143 154.171853,89.8958708 153.662146,92.5484526 L126.20532,86.8365471 C126.489199,85.2778294 126.699335,83.6933892 126.831982,82.0869732 Z M155.084165,77.5170898 C155.084165,79.5144742 155.010618,81.4937159 154.86601,83.4521655 L126.90415,81.0899913 C126.967734,80.0681627 127,79.0378494 127,78 C127,76.4062759 126.923914,74.8303228 126.775176,73.2755747 L154.7699,70.4910733 C154.977907,72.8053134 155.084165,75.1488224 155.084165,77.5170898 Z M154.673926,69.4951146 L126.669792,72.2808427 C126.48179,70.6635716 126.215038,69.0703246 125.873471,67.505037 L153.395876,61.3536298 C153.961527,64.0194613 154.390119,66.7358662 154.673926,69.4951146 Z M153.182055,60.3771641 L125.6502,66.5300529 C125.136481,64.3881152 124.482088,62.3008911 123.697337,60.2786957 L149.994544,49.8374345 C151.296733,53.2419863 152.365751,56.7617482 153.182055,60.3771641 Z M149.631368,48.9060862 L123.325862,59.3498766 C122.476093,57.2868916 121.489579,55.2946473 120.377609,53.3844316 L144.774042,38.8675933 C146.623355,42.0760561 148.249534,45.4292945 149.631368,48.9060862 Z M144.268863,38.0040701 L119.866069,52.5259431 C118.152992,49.7165538 116.165088,47.0931093 113.939714,44.6929661 L134.556282,24.9738618 C138.227966,28.954378 141.488037,33.3203366 144.268863,38.0040701 Z M133.874111,24.2437502 L113.252181,43.9663642 C110.021055,40.6202841 106.317911,37.7329759 102.250003,35.4116935 L116.109346,10.2471742 C122.701005,14.0327415 128.683726,18.7594322 133.874111,24.2437502 Z M77.5741554,9.9475983e-14 C91.2435573,9.9475983e-14 104.087417,3.54068231 115.238848,9.75470083 L101.376102,34.9247933 C94.4284619,31.1464615 86.4648974,29 78,29 C77.3617019,29 76.7262543,29.0122047 76.093878,29.0363934 C76.4633614,18.9261637 76.9570982,9.24743921 77.5741554,9.9475983e-14 Z" id="path-1"></path>
    </defs>
    <g id="Page-1" stroke="none" stroke-width="1" fill="none" fill-rule="evenodd">
        <g id="Artboard" transform="translate(-788.000000, -345.000000)">
            <g id="Sunburst" class="Sunburst" transform="translate(788.500000, 345.000000)">
                <g id="Sunburst-inner" transform="translate(32.000000, 32.000000)">
                    <path class="segment" d="M45.691177,0 C70.9015948,0 91.3445721,20.4471475 91.3445721,45.6575653 C91.3445721,67.5800232 76.3025444,85.7919005 55.6944704,90.1958006 L55.6944704,90.1958006 L50.2188584,68.735179 C61.2596122,67.0488082 69.7174334,57.5121191 69.7174334,46 C69.7174334,33.2974508 59.4199826,23 46.7174334,23 C46.0128014,23 45.3155702,23.0316864 44.6270869,23.093712 C44.852484,14.9465722 45.2075136,7.24835219 45.691177,0 Z" id="Combined-Shape" fill="#E03642"></path>
                    <path class="segment" d="M2.40966517,31.130817 L24.2305988,38.688967 C23.4328738,41.0231321 23,43.526423 23,46.130817 C23,58.8333663 33.2974508,69.130817 46,69.130817 C47.4848963,69.130817 48.9369269,68.9901021 50.3434845,68.7212795 L55.9438895,90.2216844 C23.0051543,97.5800629 -9.17140106,65.6548966 2.40966517,31.130817 L2.40966517,31.130817 Z" id="Combined-Shape" fill="#FE4746"></path>
                    <path class="segment" d="M26.5900194,4.19099882 C30.1700478,12.1720136 32.8171685,18.1652191 34.5313814,22.1706154 C34.9789992,23.2165103 35.4689368,24.3683378 36.0011944,25.6260979 C30.5932396,28.3436848 26.4051002,33.130882 24.4765828,38.9481287 L2.31296681,31.4485157 C6.4026954,19.6485647 15.3351224,9.35057302 26.5900194,4.19099882 Z" id="Combined-Shape" fill="#465741"></path>
                    <path class="segment" d="M45.6970727,0.0100659178 L46.1403284,23.0144078 C42.496359,23.0845584 39.0599245,24.0021661 36.0199299,25.5783258 L25.1993408,4.8493042 C30.9361572,1.9810791 37.7540569,0.373014155 45.6970727,0.0100659178 L45.6970727,0.0100659178 Z" id="Combined-Shape" fill="#BC2A3A"></path>
                </g>
                <g id="Sunburst-outer">
                    <path class="segmentOuter" d="M4.0911124,52.8536798 L31.5477,62.3638693 C29.8954523,67.2743309 29,72.5325934 29,78 C29,105.061953 50.9380473,127 78,127 C81.3922829,127 84.7040526,126.655282 87.9021904,125.998965 L94.9811378,153.177734 C39.617219,165.545807 -14.4784276,112.545794 3.52345925,54.6107359 L4.0911124,52.8536798 Z" id="Path" fill="#FE4746"></path>
                    <path class="segmentOuter" d="M13.0494667,35.0388884 L37.166606,50.9048576 C34.7581216,54.5271829 32.818823,58.4883764 31.4354189,62.7016538 L3.9269386,53.3930664 C6.16284983,46.9418699 9.25131692,40.7550929 13.0494667,35.0388884 Z M21.7804121,24.049687 L42.6988784,44.0174835 C40.886845,45.8992488 39.2238866,47.925572 37.7289949,50.0774446 L13.6078228,34.2094492 C16.0612672,30.6118305 18.797629,27.2076897 21.7804121,24.049687 Z M29.4190125,16.9492932 L47.5480388,39.609742 C46.0964565,40.7625728 44.7117742,41.9960015 43.4007528,43.3032611 L22.4720814,23.326367 C24.6640681,21.0622021 26.9843616,18.9298017 29.4190125,16.9492932 Z M36.0595569,12.1152376 L51.7447404,36.6214857 C50.574143,37.3656699 49.4372749,38.1581654 48.3369405,38.9961653 L30.198563,16.3234523 C32.0877036,14.8267442 34.0434771,13.420963 36.0595569,12.1152376 Z M45.1443458,7.115448 L49.9000274,17.7544585 L52.8360482,24.3716927 L55.1500796,29.6274865 L56.301225,32.2609381 L56.9458228,33.7428031 C55.4519003,34.454582 53.9997085,35.2397786 52.5939103,36.0937259 L36.9022625,11.5775034 C39.5532237,9.91106848 42.3052628,8.41696677 45.1443458,7.115448 Z" id="Combined-Shape" fill="#465741"></path>
                    <mask id="mask-2" fill="white">
                        <use xlink:href="#path-1"></use>
                    </mask>
                    <use id="Combined-Shape" fill="#E03642" xlink:href="#path-1"></use>
                    <path class="segmentOuter" d="M77.5841652,0.0170898438 L77.8046875,28.8901367 C70.6903639,29.0732479 62.863785,30.8991062 56.8150832,33.8037391 L54.4204672,28.278965 L51.9682512,22.6477829 L48.6090068,14.9740261 L46.0223389,9.09457992 C45.7317291,8.43539748 45.4400518,7.77424486 45.147307,7.1111221 C54.8177231,2.64844276 63.7349161,0.711315332 76.7802705,0.0556425018 L77.5841652,0.0170898438 Z" id="Path" fill="#BC2A3A"></path>
                </g>
            </g>
        </g>
    </g>
</svg>